<?xml version="1.0" encoding="UTF-8" ?>
<!DOCTYPE svg PUBLIC "-//W3C//DTD SVG 1.1//EN" "http://www.w3.org/Graphics/SVG/1.1/DTD/svg11.dtd">
<svg width="496pt" height="496pt" viewBox="0 0 496 496" version="1.1" xmlns="http://www.w3.org/2000/svg">
<g id="#ff5d00ff">
<path fill="#ff5d00" opacity="1.00" d=" M 97.95 36.17 C 121.80 29.19 146.90 31.54 171.41 31.19 C 166.37 38.58 160.75 45.56 155.74 52.96 C 145.85 67.56 135.98 82.21 127.71 97.80 C 124.90 103.35 121.71 108.70 119.20 114.39 C 115.22 122.49 111.21 130.59 107.90 138.99 C 104.77 147.25 101.25 155.36 98.76 163.84 C 93.47 179.37 89.75 195.37 86.50 211.44 C 86.32 210.81 85.95 209.56 85.76 208.93 C 83.55 214.87 76.46 215.41 72.38 219.60 C 73.19 219.95 74.00 220.31 74.81 220.67 C 71.12 223.06 67.80 226.23 63.34 227.15 C 63.87 228.21 64.40 229.27 64.94 230.34 C 64.51 230.41 63.65 230.54 63.23 230.61 C 63.06 231.16 62.74 232.27 62.58 232.83 C 62.22 231.88 61.86 230.94 61.50 230.00 C 59.39 232.02 57.25 234.00 55.05 235.93 C 55.34 236.79 55.63 237.64 55.91 238.50 C 54.66 238.37 53.40 238.25 52.14 238.13 C 50.21 241.94 46.34 244.12 43.74 247.42 C 43.01 247.36 42.28 247.30 41.55 247.24 C 41.51 247.69 41.43 248.59 41.39 249.04 C 40.76 248.48 40.14 247.93 39.51 247.37 C 38.82 249.29 38.13 251.21 37.45 253.13 C 36.55 252.81 35.66 252.48 34.76 252.17 C 33.98 256.06 33.02 259.96 33.01 263.96 C 33.09 293.98 32.96 324.00 32.92 354.01 C 33.07 358.48 33.36 362.97 32.80 367.43 C 32.09 363.67 32.29 359.82 32.13 356.03 C 32.13 282.02 32.13 208.01 32.12 134.00 C 32.37 114.75 35.38 94.96 45.11 78.06 C 56.46 57.99 75.77 42.57 97.95 36.17 Z" />
</g>
<g id="#ff5b12ff">
<path fill="#ff5b12" opacity="1.00" d=" M 171.41 31.19 C 206.74 31.26 242.07 31.09 277.39 31.22 C 275.56 32.24 273.66 33.14 271.68 33.84 C 272.05 33.37 272.77 32.43 273.14 31.96 C 260.44 31.70 247.71 31.59 235.02 32.26 C 239.35 37.52 247.46 38.60 250.25 45.19 C 242.76 49.11 235.69 53.77 228.30 57.85 C 226.67 58.57 225.02 59.26 223.44 60.08 C 218.70 56.59 213.51 53.75 208.93 50.03 C 206.76 48.48 204.76 46.50 202.23 45.57 C 200.21 46.23 198.77 47.94 197.22 49.30 C 192.88 53.68 187.79 57.25 183.64 61.83 C 182.60 62.93 181.56 64.03 180.51 65.13 C 172.76 60.06 163.58 57.87 155.74 52.96 C 160.75 45.56 166.37 38.58 171.41 31.19 Z" />
</g>
<g id="#ff4c02ff">
<path fill="#ff4c02" opacity="1.00" d=" M 235.02 32.26 C 247.71 31.59 260.44 31.70 273.14 31.96 C 272.77 32.43 272.05 33.37 271.68 33.84 C 264.66 37.82 257.24 41.13 250.25 45.19 C 247.46 38.60 239.35 37.52 235.02 32.26 Z" />
</g>
<g id="#ff6929ff">
<path fill="#ff6929" opacity="1.00" d=" M 202.23 45.57 C 204.76 46.50 206.76 48.48 208.93 50.03 C 213.51 53.75 218.70 56.59 223.44 60.08 C 215.63 64.45 208.90 70.57 201.04 74.80 C 198.66 73.66 196.67 71.89 194.56 70.35 C 190.90 67.52 186.35 65.76 183.64 61.83 C 187.79 57.25 192.88 53.68 197.22 49.30 C 198.77 47.94 200.21 46.23 202.23 45.57 Z" />
</g>
<g id="#ff5000ff">
<path fill="#ff5000" opacity="1.00" d=" M 361.97 56.37 C 378.91 51.96 395.99 48.10 413.11 44.43 C 423.71 49.87 432.32 58.42 439.93 67.44 L 439.82 67.56 C 437.55 69.98 435.24 72.36 432.96 74.77 C 432.35 74.29 431.74 73.81 431.14 73.34 C 431.23 74.60 431.34 75.87 431.44 77.13 C 429.22 77.83 426.61 78.09 424.97 79.92 C 424.67 81.17 424.63 82.47 424.50 83.75 C 423.48 83.55 422.47 83.36 421.47 83.17 C 421.57 83.96 421.67 84.75 421.77 85.54 C 421.02 85.41 420.28 85.28 419.53 85.15 C 419.51 85.45 419.46 86.05 419.44 86.35 C 416.22 86.00 415.85 89.17 415.16 91.55 C 414.74 91.81 413.90 92.33 413.48 92.59 C 413.30 93.09 412.94 94.08 412.76 94.57 C 412.04 94.06 411.34 93.56 410.64 93.05 C 410.55 93.44 410.38 94.23 410.30 94.62 C 409.86 94.85 408.98 95.32 408.54 95.55 C 408.30 96.07 407.83 97.12 407.59 97.64 C 406.78 97.20 405.97 96.76 405.18 96.33 C 405.27 97.20 405.38 98.06 405.48 98.93 C 404.20 98.39 402.92 97.86 401.65 97.32 C 402.64 98.57 403.64 99.82 404.64 101.07 C 403.27 101.64 401.91 102.21 400.54 102.78 C 400.29 103.12 399.78 103.79 399.53 104.12 C 399.33 104.34 398.93 104.78 398.72 104.99 C 396.94 106.73 394.48 107.26 392.30 108.29 C 389.46 110.35 387.55 113.43 386.30 116.66 C 384.06 117.75 381.74 118.67 379.40 119.51 C 379.78 119.85 380.17 120.20 380.57 120.54 C 378.37 121.81 376.19 123.11 374.02 124.42 C 375.24 124.56 376.46 124.70 377.68 124.86 C 375.36 125.90 372.82 126.15 370.32 126.27 C 370.93 127.28 371.53 128.29 372.15 129.31 C 369.25 130.26 365.53 131.23 365.91 135.11 C 363.58 128.94 359.53 123.50 354.15 119.66 C 349.91 116.74 344.92 114.73 339.71 115.00 C 340.29 115.57 340.89 116.14 341.50 116.71 C 344.20 119.90 348.44 122.00 350.05 126.00 C 329.28 140.94 304.57 150.49 279.09 153.12 C 260.54 154.95 241.63 153.49 223.70 148.30 C 226.14 145.38 228.91 142.75 231.73 140.21 C 236.46 136.56 240.44 132.08 244.74 127.96 C 248.30 124.39 252.06 121.00 255.38 117.19 C 256.04 116.31 257.43 115.34 256.64 114.08 C 253.86 106.51 250.65 99.10 247.96 91.50 C 285.58 78.61 323.42 66.22 361.97 56.37 Z" />
</g>
<g id="#ff6821ff">
<path fill="#ff6821" opacity="1.00" d=" M 127.71 97.80 C 135.98 82.21 145.85 67.56 155.74 52.96 C 163.58 57.87 172.76 60.06 180.51 65.13 C 177.29 68.46 173.91 71.63 170.81 75.08 C 166.29 80.19 161.26 84.85 157.02 90.21 C 152.45 95.81 147.52 101.11 143.17 106.89 C 139.05 102.28 132.51 101.48 127.71 97.80 Z" />
</g>
<g id="#ff753bff">
<path fill="#ff753b" opacity="1.00" d=" M 223.44 60.08 C 225.02 59.26 226.67 58.57 228.30 57.85 C 217.86 64.84 207.33 71.74 197.32 79.36 C 195.96 80.33 194.66 81.38 193.33 82.38 C 190.65 84.52 188.02 86.72 185.30 88.82 C 185.28 87.43 185.75 85.67 184.33 84.78 C 180.11 81.15 174.74 79.11 170.81 75.08 C 173.91 71.63 177.29 68.46 180.51 65.13 C 181.56 64.03 182.60 62.93 183.64 61.83 C 186.35 65.76 190.90 67.52 194.56 70.35 C 196.67 71.89 198.66 73.66 201.04 74.80 C 208.90 70.57 215.63 64.45 223.44 60.08 Z" />
</g>
<g id="#ff4600ff">
<path fill="#ff4600" opacity="1.00" d=" M 439.82 67.56 C 453.94 85.03 459.16 107.87 459.77 129.92 C 460.00 147.93 459.82 165.96 459.86 183.98 C 450.06 194.56 440.62 205.49 431.53 216.69 C 422.00 228.95 412.59 241.77 407.46 256.57 C 406.19 259.71 406.11 263.21 404.76 266.29 C 400.79 270.97 404.55 277.30 403.08 282.76 C 402.23 282.18 401.40 281.60 400.57 281.02 C 400.58 281.93 400.60 282.83 400.63 283.74 C 398.38 284.35 396.03 284.78 394.03 286.02 C 392.85 287.28 392.22 288.92 391.41 290.42 C 390.16 290.48 388.92 290.53 387.68 290.59 C 387.59 291.78 387.51 292.96 387.43 294.16 C 386.68 294.42 385.94 294.70 385.20 294.97 C 384.46 298.87 380.46 300.12 377.09 300.92 C 376.43 302.60 375.80 304.28 375.17 305.97 C 374.23 305.53 373.30 305.09 372.36 304.65 C 369.16 313.57 359.79 317.36 352.72 322.63 C 352.62 322.92 352.44 323.50 352.34 323.79 C 351.01 324.09 349.68 324.41 348.36 324.72 C 345.96 328.95 342.85 333.09 337.83 334.21 C 337.51 335.91 337.28 337.64 336.65 339.26 C 334.64 340.11 332.42 340.21 330.30 340.49 C 330.79 341.24 331.29 341.99 331.79 342.74 C 330.74 342.88 329.69 343.02 328.65 343.16 C 328.47 344.02 328.29 344.88 328.11 345.74 C 327.16 345.14 326.22 344.55 325.27 343.96 C 325.75 345.26 326.22 346.57 326.70 347.88 C 325.11 348.51 323.52 349.13 321.94 349.76 C 321.66 349.48 321.09 348.92 320.81 348.64 C 318.58 352.06 314.36 351.25 310.88 351.27 C 312.74 351.90 314.60 352.56 316.48 353.13 C 307.59 352.50 297.24 355.44 293.33 364.23 C 292.99 363.89 292.33 363.19 291.99 362.85 C 290.69 366.74 290.65 370.88 291.47 374.88 C 290.81 376.46 290.14 378.03 289.48 379.61 C 288.50 378.99 287.51 378.37 286.54 377.77 C 286.58 379.09 286.62 380.42 286.67 381.75 C 285.81 381.24 284.97 380.73 284.12 380.23 C 284.24 381.49 284.37 382.75 284.50 384.02 C 283.78 383.52 283.06 383.04 282.35 382.55 C 281.84 383.18 281.33 383.81 280.83 384.45 C 279.71 384.52 278.59 384.60 277.48 384.68 C 276.33 383.80 275.15 382.97 273.97 382.14 C 276.24 380.09 278.76 378.07 279.93 375.16 C 281.88 370.05 281.20 363.76 277.35 359.70 C 272.50 354.40 264.85 352.75 257.92 353.26 C 251.45 353.66 244.60 356.50 241.28 362.35 C 239.23 365.77 239.26 369.94 239.94 373.75 C 239.05 375.12 238.16 376.50 237.27 377.88 C 236.16 377.61 235.05 377.34 233.95 377.08 C 234.85 378.36 235.76 379.65 236.67 380.94 C 235.60 380.83 234.54 380.74 233.48 380.64 C 232.89 381.27 232.31 381.90 231.72 382.54 C 230.58 382.68 229.45 382.83 228.31 382.98 C 222.56 373.86 210.10 372.06 200.63 375.83 C 202.70 372.60 205.08 369.43 208.46 367.47 C 212.46 364.80 217.29 364.06 221.95 363.45 C 222.98 359.72 223.97 355.98 224.90 352.23 C 214.32 351.89 203.17 354.87 195.43 362.37 C 189.21 368.23 185.93 376.57 184.89 384.92 C 184.44 384.76 183.56 384.44 183.11 384.28 C 182.41 391.55 183.12 398.89 185.64 405.78 C 184.47 408.23 184.12 413.60 180.24 412.46 C 178.71 410.79 179.17 408.13 178.96 406.02 C 179.04 388.08 178.98 370.14 178.91 352.21 C 179.70 352.25 180.50 352.30 181.31 352.36 C 181.39 351.67 181.48 350.98 181.57 350.30 C 182.40 350.31 183.24 350.33 184.07 350.35 C 183.79 345.82 190.13 346.38 190.41 341.98 C 193.13 342.96 194.74 340.09 196.59 338.65 C 199.93 335.29 205.21 333.62 206.50 328.57 C 207.50 328.59 208.50 328.61 209.51 328.64 C 211.00 326.24 212.50 323.84 214.01 321.46 C 214.59 321.75 215.18 322.04 215.76 322.34 C 217.04 321.77 218.32 321.20 219.60 320.64 C 219.14 319.73 218.68 318.82 218.22 317.92 C 219.55 317.81 220.88 317.71 222.21 317.61 C 222.63 316.32 223.05 315.04 223.49 313.77 C 225.45 313.18 226.99 311.84 228.40 310.42 C 229.68 310.47 230.95 310.53 232.24 310.59 C 230.84 308.48 228.50 307.64 226.05 307.59 C 266.44 300.99 304.61 285.19 340.87 266.68 C 342.99 265.55 345.11 264.42 347.18 263.20 C 344.77 263.72 342.39 264.33 340.00 264.90 C 306.48 273.15 272.46 279.76 238.02 282.59 C 214.96 284.22 191.25 284.76 168.84 278.26 L 169.56 278.18 C 172.26 277.89 174.99 277.67 177.68 278.15 C 178.45 277.64 179.22 277.12 180.00 276.61 C 181.45 276.86 182.90 277.14 184.34 277.48 C 183.76 275.81 183.53 274.04 183.87 272.29 C 184.96 272.44 186.07 272.61 187.17 272.77 C 187.58 271.83 188.00 270.90 188.42 269.97 C 188.75 270.86 189.08 271.75 189.41 272.64 C 190.23 270.48 191.50 268.55 193.48 267.29 C 193.17 267.11 192.56 266.74 192.26 266.55 C 193.58 266.17 194.90 265.80 196.23 265.42 C 196.83 263.67 197.21 261.80 198.21 260.21 C 199.55 258.67 201.56 257.99 203.37 257.15 C 204.44 255.89 205.50 254.62 206.55 253.35 C 207.00 253.67 207.90 254.30 208.35 254.62 C 209.47 253.77 210.60 252.93 211.75 252.12 C 214.32 250.31 216.13 247.63 215.47 244.36 C 216.21 244.81 216.96 245.26 217.71 245.71 C 217.97 244.90 218.23 244.09 218.50 243.28 C 218.93 243.78 219.79 244.78 220.22 245.28 C 220.66 243.85 221.11 242.43 221.57 241.01 C 221.76 241.72 222.16 243.12 222.36 243.83 C 223.89 241.37 225.48 238.95 227.20 236.61 C 227.39 237.32 227.79 238.74 227.99 239.45 C 228.54 237.51 229.12 235.57 229.74 233.64 C 230.50 233.62 231.26 233.59 232.02 233.57 C 233.30 231.53 235.07 229.93 237.64 230.14 C 238.06 228.77 238.42 227.37 239.00 226.05 C 240.39 225.58 241.87 225.46 243.27 225.00 C 244.17 223.46 244.39 221.64 245.12 220.03 C 247.00 218.38 249.58 218.00 251.88 217.22 C 252.63 215.45 253.71 213.97 255.73 215.10 C 256.63 213.14 257.55 211.18 258.49 209.23 C 258.89 210.12 259.29 211.00 259.70 211.89 C 259.89 210.81 260.07 209.74 260.27 208.67 C 260.60 208.58 261.26 208.38 261.59 208.29 C 261.81 207.93 262.26 207.22 262.48 206.86 C 263.26 206.44 264.05 206.02 264.85 205.59 C 264.48 205.33 263.74 204.82 263.36 204.56 C 264.07 204.20 264.78 203.84 265.49 203.48 C 265.72 203.01 266.17 202.07 266.39 201.60 C 267.80 201.55 269.21 201.49 270.62 201.43 C 271.89 198.05 275.10 196.22 277.06 193.35 C 277.93 193.50 278.81 193.65 279.69 193.80 C 279.25 193.16 278.82 192.51 278.39 191.88 C 280.34 191.45 281.67 190.01 282.77 188.43 C 283.36 188.81 283.95 189.20 284.55 189.59 C 285.78 183.29 292.09 180.65 295.52 175.77 C 295.43 176.84 295.35 177.90 295.28 178.97 C 297.14 177.13 299.08 175.35 301.22 173.83 C 302.36 172.03 303.46 170.21 304.54 168.37 C 305.15 168.93 305.76 169.48 306.38 170.04 C 306.47 169.29 306.57 168.55 306.67 167.82 C 308.17 167.27 309.73 166.84 311.16 166.09 C 312.15 164.75 312.82 163.20 313.60 161.73 C 317.15 162.00 318.37 158.66 319.61 156.02 C 318.04 155.92 316.48 155.81 314.93 155.77 C 327.77 150.75 340.20 144.56 351.55 136.69 C 353.07 135.62 354.66 134.65 356.32 133.79 C 357.97 138.48 358.83 143.43 358.51 148.41 C 361.41 148.37 364.31 148.36 367.22 148.35 C 367.53 143.88 366.97 139.44 365.91 135.11 C 365.53 131.23 369.25 130.26 372.15 129.31 C 371.53 128.29 370.93 127.28 370.32 126.27 C 372.82 126.15 375.36 125.90 377.68 124.86 C 376.46 124.70 375.24 124.56 374.02 124.42 C 376.19 123.11 378.37 121.81 380.57 120.54 C 380.17 120.20 379.78 119.85 379.40 119.51 C 381.74 118.67 384.06 117.75 386.30 116.66 C 387.55 113.43 389.46 110.35 392.30 108.29 C 394.48 107.26 396.94 106.73 398.72 104.99 C 398.93 104.78 399.33 104.34 399.53 104.12 C 399.78 103.79 400.29 103.12 400.54 102.78 C 401.91 102.21 403.27 101.64 404.64 101.07 C 403.64 99.82 402.64 98.57 401.65 97.32 C 402.92 97.86 404.20 98.39 405.48 98.93 C 405.38 98.06 405.27 97.20 405.18 96.33 C 405.97 96.76 406.78 97.20 407.59 97.64 C 407.83 97.12 408.30 96.07 408.54 95.55 C 408.98 95.32 409.86 94.85 410.30 94.62 C 410.38 94.23 410.55 93.44 410.64 93.05 C 411.34 93.56 412.04 94.06 412.76 94.57 C 412.94 94.08 413.30 93.09 413.48 92.59 C 413.90 92.33 414.74 91.81 415.16 91.55 C 415.85 89.17 416.22 86.00 419.44 86.35 C 419.46 86.05 419.51 85.45 419.53 85.15 C 420.28 85.28 421.02 85.41 421.77 85.54 C 421.67 84.75 421.57 83.96 421.47 83.17 C 422.47 83.36 423.48 83.55 424.50 83.75 C 424.63 82.47 424.67 81.17 424.97 79.92 C 426.61 78.09 429.22 77.83 431.44 77.13 C 431.34 75.87 431.23 74.60 431.14 73.34 C 431.74 73.81 432.35 74.29 432.96 74.77 C 435.24 72.36 437.55 69.98 439.82 67.56 Z" />
</g>
<g id="#ff814aff">
<path fill="#ff814a" opacity="1.00" d=" M 170.81 75.08 C 174.74 79.11 180.11 81.15 184.33 84.78 C 185.75 85.67 185.28 87.43 185.30 88.82 C 180.43 92.65 175.86 96.85 171.16 100.89 C 166.70 96.99 161.26 94.41 157.02 90.21 C 161.26 84.85 166.29 80.19 170.81 75.08 Z" />
</g>
<g id="#ff8f5eff">
<path fill="#ff8f5e" opacity="1.00" d=" M 143.17 106.89 C 147.52 101.11 152.45 95.81 157.02 90.21 C 161.26 94.41 166.70 96.99 171.16 100.89 C 169.75 102.35 168.32 103.84 166.49 104.78 C 161.64 109.16 157.20 113.95 152.50 118.49 C 150.87 120.12 148.97 121.60 148.06 123.79 C 144.84 120.37 140.75 118.01 136.78 115.58 C 138.87 112.66 140.97 109.74 143.17 106.89 Z" />
</g>
<g id="#ff7330ff">
<path fill="#ff7330" opacity="1.00" d=" M 119.20 114.39 C 121.71 108.70 124.90 103.35 127.71 97.80 C 132.51 101.48 139.05 102.28 143.17 106.89 C 140.97 109.74 138.87 112.66 136.78 115.58 C 134.94 118.16 133.04 120.70 131.27 123.33 C 127.51 121.31 123.58 119.61 119.65 117.92 C 119.49 116.74 119.33 115.57 119.20 114.39 Z" />
</g>
<g id="#ff7a39ff">
<path fill="#ff7a39" opacity="1.00" d=" M 119.20 114.39 C 119.33 115.57 119.49 116.74 119.65 117.92 C 123.58 119.61 127.51 121.31 131.27 123.33 C 130.54 124.43 129.84 125.54 129.13 126.64 C 126.33 130.97 123.35 135.18 120.78 139.65 C 119.52 141.75 118.24 143.83 117.00 145.94 C 113.57 144.21 109.85 142.53 107.90 138.99 C 111.21 130.59 115.22 122.49 119.20 114.39 Z" />
</g>
<g id="#ffbc9cff">
<path fill="#ffbc9c" opacity="1.00" d=" M 339.71 115.00 C 344.92 114.73 349.91 116.74 354.15 119.66 C 350.22 117.98 345.76 113.98 341.50 116.71 C 340.89 116.14 340.29 115.57 339.71 115.00 Z" />
<path fill="#ffbc9c" opacity="1.00" d=" M 111.02 156.89 C 112.75 158.29 114.47 159.69 116.17 161.13 L 116.44 161.96 C 113.39 166.04 110.64 170.33 107.82 174.57 C 107.15 175.56 106.47 176.56 105.82 177.57 C 104.44 179.53 103.11 181.54 101.80 183.56 C 101.13 184.55 100.48 185.55 99.87 186.57 C 98.58 188.94 97.00 191.13 95.79 193.55 C 95.11 195.00 94.42 196.47 93.79 197.95 L 93.20 198.09 C 95.70 188.41 100.39 179.46 104.27 170.29 C 106.39 165.76 108.76 161.35 111.02 156.89 Z" />
</g>
<g id="#ff9d72ff">
<path fill="#ff9d72" opacity="1.00" d=" M 131.27 123.33 C 133.04 120.70 134.94 118.16 136.78 115.58 C 140.75 118.01 144.84 120.37 148.06 123.79 C 145.13 127.32 141.01 129.88 138.86 133.99 C 135.94 131.13 132.63 128.72 129.13 126.64 C 129.84 125.54 130.54 124.43 131.27 123.33 Z" />
</g>
<g id="#73331773">
<path fill="#733317" opacity="0.45" d=" M 245.27 126.25 C 248.68 123.29 251.36 119.39 255.38 117.19 C 252.06 121.00 248.30 124.39 244.74 127.96 C 240.44 132.08 236.46 136.56 231.73 140.21 C 235.65 135.02 240.82 130.95 245.27 126.25 Z" />
</g>
<g id="#ffa67eff">
<path fill="#ffa67e" opacity="1.00" d=" M 120.78 139.65 C 123.35 135.18 126.33 130.97 129.13 126.64 C 132.63 128.72 135.94 131.13 138.86 133.99 C 136.90 136.24 134.19 137.94 133.01 140.76 C 131.50 142.48 129.38 143.87 128.92 146.27 L 128.65 146.07 C 125.96 144.01 123.34 141.87 120.78 139.65 Z" />
</g>
<g id="#ff8243ff">
<path fill="#ff8243" opacity="1.00" d=" M 107.90 138.99 C 109.85 142.53 113.57 144.21 117.00 145.94 C 114.90 149.53 112.93 153.19 111.02 156.89 C 108.76 161.35 106.39 165.76 104.27 170.29 C 102.46 168.12 100.62 165.97 98.76 163.84 C 101.25 155.36 104.77 147.25 107.90 138.99 Z" />
</g>
<g id="#ffb08cff">
<path fill="#ffb08c" opacity="1.00" d=" M 120.78 139.65 C 123.34 141.87 125.96 144.01 128.65 146.07 C 127.28 147.48 125.81 148.85 124.94 150.65 C 121.65 153.84 119.96 158.58 116.17 161.13 C 114.47 159.69 112.75 158.29 111.02 156.89 C 112.93 153.19 114.90 149.53 117.00 145.94 C 118.24 143.83 119.52 141.75 120.78 139.65 Z" />
</g>
<g id="#ff4f00ff">
<path fill="#ff4f00" opacity="1.00" d=" M 259.02 165.63 C 278.07 165.84 297.01 162.12 314.93 155.77 C 316.48 155.81 318.04 155.92 319.61 156.02 C 318.37 158.66 317.15 162.00 313.60 161.73 C 312.82 163.20 312.15 164.75 311.16 166.09 C 309.73 166.84 308.17 167.27 306.67 167.82 C 306.57 168.55 306.47 169.29 306.38 170.04 C 305.76 169.48 305.15 168.93 304.54 168.37 C 303.46 170.21 302.36 172.03 301.22 173.83 C 299.08 175.35 297.14 177.13 295.28 178.97 C 295.35 177.90 295.43 176.84 295.52 175.77 C 292.09 180.65 285.78 183.29 284.55 189.59 C 283.95 189.20 283.36 188.81 282.77 188.43 C 281.67 190.01 280.34 191.45 278.39 191.88 C 278.82 192.51 279.25 193.16 279.69 193.80 C 278.81 193.65 277.93 193.50 277.06 193.35 C 275.10 196.22 271.89 198.05 270.62 201.43 C 269.21 201.49 267.80 201.55 266.39 201.60 C 266.17 202.07 265.72 203.01 265.49 203.48 C 264.78 203.84 264.07 204.20 263.36 204.56 C 263.74 204.82 264.48 205.33 264.85 205.59 C 264.05 206.02 263.26 206.44 262.48 206.86 C 262.26 207.22 261.81 207.93 261.59 208.29 C 261.26 208.38 260.60 208.58 260.27 208.67 C 260.07 209.74 259.89 210.81 259.70 211.89 C 259.29 211.00 258.89 210.12 258.49 209.23 C 257.55 211.18 256.63 213.14 255.73 215.10 C 253.71 213.97 252.63 215.45 251.88 217.22 C 249.58 218.00 247.00 218.38 245.12 220.03 C 244.39 221.64 244.17 223.46 243.27 225.00 C 241.87 225.46 240.39 225.58 239.00 226.05 C 238.42 227.37 238.06 228.77 237.64 230.14 C 235.07 229.93 233.30 231.53 232.02 233.57 C 231.26 233.59 230.50 233.62 229.74 233.64 C 229.12 235.57 228.54 237.51 227.99 239.45 C 227.79 238.74 227.39 237.32 227.20 236.61 C 225.48 238.95 223.89 241.37 222.36 243.83 C 222.16 243.12 221.76 241.72 221.57 241.01 C 221.11 242.43 220.66 243.85 220.22 245.28 C 219.79 244.78 218.93 243.78 218.50 243.28 C 218.23 244.09 217.97 244.90 217.71 245.71 C 216.96 245.26 216.21 244.81 215.47 244.36 C 216.13 247.63 214.32 250.31 211.75 252.12 C 210.60 252.93 209.47 253.77 208.35 254.62 C 207.90 254.30 207.00 253.67 206.55 253.35 C 205.50 254.62 204.44 255.89 203.37 257.15 C 201.56 257.99 199.55 258.67 198.21 260.21 C 197.21 261.80 196.83 263.67 196.23 265.42 C 194.90 265.80 193.58 266.17 192.26 266.55 C 192.56 266.74 193.17 267.11 193.48 267.29 C 191.50 268.55 190.23 270.48 189.41 272.64 C 189.08 271.75 188.75 270.86 188.42 269.97 C 188.00 270.90 187.58 271.83 187.17 272.77 C 186.07 272.61 184.96 272.44 183.87 272.29 C 183.53 274.04 183.76 275.81 184.34 277.48 C 182.90 277.14 181.45 276.86 180.00 276.61 C 179.22 277.12 178.45 277.64 177.68 278.15 C 174.99 277.67 172.26 277.89 169.56 278.18 C 163.83 277.13 158.49 274.38 153.53 271.39 C 146.96 267.45 143.06 259.69 143.41 252.11 C 144.53 242.13 151.14 233.93 157.99 227.05 C 171.94 214.00 188.74 204.16 206.53 197.32 C 206.43 183.85 206.56 170.38 206.46 156.91 C 223.43 162.37 241.14 165.80 259.02 165.63 Z" />
</g>
<g id="#ff894dff">
<path fill="#ff894d" opacity="1.00" d=" M 98.76 163.84 C 100.62 165.97 102.46 168.12 104.27 170.29 C 100.39 179.46 95.70 188.41 93.20 198.09 C 92.00 202.04 90.21 205.81 88.71 209.67 C 88.09 211.69 87.39 213.69 86.74 215.70 L 86.69 214.82 C 86.64 213.69 86.58 212.56 86.50 211.44 C 89.75 195.37 93.47 179.37 98.76 163.84 Z" />
</g>
<g id="#ff5200ff">
<path fill="#ff5200" opacity="1.00" d=" M 72.38 219.60 C 76.46 215.41 83.55 214.87 85.76 208.93 C 85.95 209.56 86.32 210.81 86.50 211.44 C 86.58 212.56 86.64 213.69 86.69 214.82 C 84.47 225.42 81.19 235.99 81.66 246.96 C 81.52 261.77 87.46 276.56 98.01 286.99 C 101.81 291.23 106.84 294.07 111.22 297.55 C 112.63 300.47 115.90 301.52 118.49 303.09 C 116.82 305.14 114.56 306.15 111.92 305.64 C 108.47 308.45 106.46 312.79 102.55 315.03 C 100.31 316.80 98.32 318.87 96.42 321.00 C 92.47 323.24 87.94 325.54 86.20 330.04 C 84.86 330.78 83.54 331.54 82.23 332.32 C 82.05 331.64 81.88 330.97 81.70 330.30 C 79.74 333.11 77.70 335.87 75.59 338.58 C 74.50 338.59 73.42 338.60 72.34 338.62 C 72.93 339.69 73.52 340.75 74.12 341.84 C 72.88 341.38 71.64 340.93 70.40 340.48 C 70.08 342.01 69.86 343.59 69.32 345.08 C 68.15 345.65 66.91 346.07 65.69 346.54 C 65.60 346.81 65.41 347.35 65.32 347.62 C 64.74 347.66 64.17 347.72 63.59 347.77 C 62.00 349.16 60.34 350.46 58.64 351.70 C 58.67 352.69 58.70 353.69 58.74 354.68 C 58.04 354.10 57.34 353.52 56.65 352.94 C 56.09 354.77 55.53 356.60 54.97 358.44 C 54.47 357.35 53.98 356.27 53.49 355.19 C 53.22 356.03 52.96 356.87 52.70 357.72 C 52.40 357.37 51.80 356.68 51.51 356.33 C 50.58 358.48 49.66 360.63 48.73 362.78 C 47.99 362.12 47.24 361.47 46.50 360.82 C 46.54 361.75 46.59 362.69 46.63 363.64 C 44.45 365.76 42.08 367.70 39.41 369.17 C 39.16 369.51 38.67 370.17 38.42 370.50 C 37.99 370.67 37.13 371.01 36.71 371.17 C 36.94 371.96 37.19 372.75 37.41 373.55 C 36.34 373.26 35.29 372.90 34.24 372.56 C 34.17 374.46 34.09 376.36 34.07 378.27 C 33.32 374.71 32.77 371.07 32.80 367.43 C 33.36 362.97 33.07 358.48 32.92 354.01 C 32.96 324.00 33.09 293.98 33.01 263.96 C 33.02 259.96 33.98 256.06 34.76 252.17 C 35.66 252.48 36.55 252.81 37.45 253.13 C 38.13 251.21 38.82 249.29 39.51 247.37 C 40.14 247.93 40.76 248.48 41.39 249.04 C 41.43 248.59 41.51 247.69 41.55 247.24 C 42.28 247.30 43.01 247.36 43.74 247.42 C 46.34 244.12 50.21 241.94 52.14 238.13 C 53.40 238.25 54.66 238.37 55.91 238.50 C 55.63 237.64 55.34 236.79 55.05 235.93 C 57.25 234.00 59.39 232.02 61.50 230.00 C 61.86 230.94 62.22 231.88 62.58 232.83 C 62.74 232.27 63.06 231.16 63.23 230.61 C 63.65 230.54 64.51 230.41 64.94 230.34 C 64.40 229.27 63.87 228.21 63.34 227.15 C 67.80 226.23 71.12 223.06 74.81 220.67 C 74.00 220.31 73.19 219.95 72.38 219.60 Z" />
</g>
<g id="#ffffffff">
<path fill="#ffffff" opacity="1.00" d=" M 340.00 264.90 C 342.39 264.33 344.77 263.72 347.18 263.20 C 345.11 264.42 342.99 265.55 340.87 266.68 C 340.92 266.27 341.01 265.46 341.06 265.06 L 340.00 264.90 Z" />
<path fill="#ffffff" opacity="1.00" d=" M 153.39 359.67 C 161.49 357.22 169.41 354.09 177.65 352.16 C 177.56 373.28 177.63 394.40 177.61 415.52 C 173.24 415.51 168.86 415.51 164.49 415.52 C 164.48 399.76 164.45 384.00 164.51 368.25 C 162.28 368.59 159.81 370.22 157.64 369.57 C 155.91 366.41 154.83 362.96 153.39 359.67 Z" />
<path fill="#ffffff" opacity="1.00" d=" M 195.43 362.37 C 203.17 354.87 214.32 351.89 224.90 352.23 C 223.97 355.98 222.98 359.72 221.95 363.45 C 217.29 364.06 212.46 364.80 208.46 367.47 C 205.08 369.43 202.70 372.60 200.63 375.83 C 210.10 372.06 222.56 373.86 228.31 382.98 C 232.46 390.36 232.42 400.26 227.21 407.13 C 222.59 413.33 214.55 416.25 206.98 415.89 C 200.31 415.91 193.16 413.48 189.21 407.83 C 184.51 401.24 184.15 392.70 184.89 384.92 C 185.93 376.57 189.21 368.23 195.43 362.37 M 205.42 385.59 C 198.03 387.05 196.21 397.89 201.42 402.61 C 206.38 406.32 215.44 404.66 217.19 398.17 C 218.09 394.67 217.88 390.49 215.32 387.72 C 212.81 385.11 208.77 384.89 205.42 385.59 Z" />
<path fill="#ffffff" opacity="1.00" d=" M 241.28 362.35 C 244.60 356.50 251.45 353.66 257.92 353.26 C 264.85 352.75 272.50 354.40 277.35 359.70 C 281.20 363.76 281.88 370.05 279.93 375.16 C 278.76 378.07 276.24 380.09 273.97 382.14 C 275.15 382.97 276.33 383.80 277.48 384.68 C 284.62 390.10 286.10 401.48 280.36 408.41 C 275.91 413.74 268.67 415.68 261.98 415.87 C 254.94 416.13 247.25 415.01 241.84 410.12 C 236.31 405.37 235.14 396.74 238.42 390.39 C 240.22 386.89 243.36 384.41 246.47 382.15 C 243.71 379.86 241.23 377.15 239.94 373.75 C 239.26 369.94 239.23 365.77 241.28 362.35 M 256.45 364.66 C 254.08 365.24 252.15 367.49 252.48 370.02 C 252.63 373.92 256.72 375.89 260.01 376.77 C 262.66 376.47 265.23 375.10 266.96 373.08 C 268.85 370.79 268.34 366.88 265.70 365.40 C 262.92 363.83 259.47 364.06 256.45 364.66 M 258.51 388.68 C 255.37 389.86 252.13 391.75 250.80 395.00 C 249.86 397.76 250.54 401.31 253.16 402.92 C 256.35 404.87 260.36 404.78 263.95 404.26 C 266.71 403.84 269.44 401.95 269.98 399.07 C 270.96 395.54 268.52 392.13 265.58 390.44 C 263.48 389.27 260.98 387.55 258.51 388.68 Z" />
<path fill="#ffffff" opacity="1.00" d=" M 293.33 364.23 C 297.24 355.44 307.59 352.50 316.48 353.13 C 321.34 354.03 326.42 355.44 329.97 359.11 C 334.52 363.51 335.52 370.95 332.44 376.46 C 331.17 378.75 329.08 380.41 327.17 382.14 C 331.29 384.83 335.20 388.44 336.45 393.38 C 337.54 398.28 337.11 403.87 333.89 407.92 C 329.72 413.38 322.58 415.52 315.98 415.82 C 308.65 416.21 300.56 415.17 294.92 410.05 C 289.34 405.15 288.25 396.27 291.86 389.91 C 293.66 386.62 296.69 384.29 299.67 382.14 C 297.21 379.96 294.57 377.67 293.51 374.45 C 292.18 371.17 292.71 367.59 293.33 364.23 M 309.51 364.70 C 306.39 365.39 304.70 369.08 306.04 371.94 C 307.39 374.63 310.38 376.02 313.15 376.78 C 317.28 376.35 322.46 372.85 321.01 368.09 C 319.32 363.58 313.37 363.85 309.51 364.70 M 312.40 388.43 C 308.17 389.76 303.16 392.89 303.58 397.97 C 303.57 402.38 308.27 404.58 312.12 404.54 C 316.01 404.76 321.27 404.24 322.85 400.01 C 325.23 393.77 317.98 388.22 312.40 388.43 Z" />
</g>
<g id="#ff3c00ff">
<path fill="#ff3c00" opacity="1.00" d=" M 403.08 282.76 C 404.55 277.30 400.79 270.97 404.76 266.29 C 404.05 276.84 406.76 288.67 415.76 295.19 C 428.40 304.35 444.96 304.28 459.88 303.38 C 459.87 320.25 459.87 337.13 459.88 354.00 C 459.77 358.44 459.97 362.94 459.16 367.33 C 458.40 361.26 459.11 355.15 458.82 349.06 C 458.07 350.76 457.32 352.46 456.59 354.18 C 456.38 353.51 455.94 352.19 455.73 351.52 C 452.97 354.92 449.07 357.54 447.61 361.84 C 446.62 361.74 445.64 361.65 444.67 361.56 C 444.41 362.64 444.19 363.74 443.84 364.81 C 442.48 365.57 440.94 365.92 439.47 366.41 C 439.99 367.16 440.51 367.91 441.04 368.67 C 439.76 368.23 438.49 367.79 437.22 367.36 C 437.28 368.10 437.34 368.84 437.40 369.59 C 436.33 370.08 435.27 370.57 434.21 371.08 C 431.82 374.10 428.72 376.42 425.47 378.45 C 425.87 379.22 426.28 380.00 426.69 380.79 C 425.69 380.59 424.69 380.40 423.70 380.21 C 423.53 380.81 423.37 381.41 423.21 382.02 C 420.44 383.38 418.00 385.38 416.73 388.26 C 415.58 388.43 414.44 388.60 413.30 388.77 C 413.07 389.18 412.62 390.01 412.39 390.43 C 411.90 390.64 410.92 391.06 410.43 391.27 C 410.89 391.99 411.36 392.71 411.83 393.44 C 410.66 393.15 409.49 392.86 408.33 392.58 C 408.41 393.65 408.52 394.72 408.53 395.80 C 406.43 397.29 403.77 397.31 401.31 397.55 C 401.83 398.70 402.35 399.85 402.88 401.01 C 398.75 402.52 395.36 405.38 391.68 407.69 C 391.33 408.96 391.03 410.26 390.44 411.44 C 389.22 412.53 387.41 412.47 385.99 413.18 C 385.37 414.43 385.01 415.79 384.57 417.11 C 381.99 416.86 380.26 418.48 379.00 420.53 C 378.22 420.54 377.44 420.57 376.67 420.59 C 376.12 422.51 375.58 424.44 375.08 426.38 C 374.88 425.74 374.46 424.46 374.25 423.82 C 371.75 424.93 370.19 426.99 370.01 429.74 C 369.29 429.25 368.57 428.75 367.85 428.27 C 367.79 429.61 367.73 430.96 367.68 432.32 C 365.89 431.93 364.11 431.55 362.34 431.17 C 362.37 432.63 362.51 434.11 362.38 435.58 C 361.39 437.03 359.55 437.49 358.08 438.30 C 357.57 439.69 356.63 440.81 355.51 441.75 C 354.74 441.26 353.97 440.78 353.20 440.31 C 352.29 441.65 351.37 443.01 350.46 444.37 C 349.81 444.39 349.16 444.42 348.51 444.45 C 347.78 445.99 347.06 447.53 346.34 449.08 C 345.65 448.50 344.96 447.92 344.28 447.35 C 344.01 449.07 343.74 450.79 343.47 452.52 C 342.05 452.77 340.63 453.04 339.22 453.31 C 339.61 453.64 340.00 453.98 340.41 454.33 C 339.28 455.32 338.24 456.41 337.40 457.66 C 347.68 458.42 358.00 457.31 368.28 458.10 C 362.56 458.98 356.74 458.82 350.97 458.85 C 288.66 458.84 226.35 458.85 164.04 458.85 C 150.67 458.64 137.27 459.36 123.94 458.26 C 125.91 458.26 127.92 458.29 129.85 457.84 C 131.72 456.89 131.91 454.51 132.61 452.75 C 133.97 452.49 135.75 452.95 136.77 451.79 C 137.27 450.24 137.44 448.60 138.02 447.08 C 139.33 445.47 141.39 444.82 143.20 443.96 C 144.27 442.82 145.33 441.67 146.38 440.52 C 147.29 440.90 148.19 441.28 149.10 441.67 C 148.52 440.24 147.95 438.82 147.36 437.40 C 148.76 437.51 150.16 437.67 151.56 437.64 C 153.20 435.90 154.35 433.76 156.02 432.05 C 157.26 430.37 159.11 432.07 160.62 432.41 C 160.58 431.20 160.53 429.99 160.58 428.79 C 161.32 428.83 162.05 428.92 162.79 429.01 C 164.10 426.35 165.80 423.91 167.58 421.55 C 167.79 421.82 168.20 422.34 168.40 422.60 C 168.99 421.90 169.59 421.20 170.18 420.51 C 170.88 420.58 171.59 420.66 172.30 420.74 C 172.80 419.71 173.30 418.67 173.80 417.64 C 170.72 417.27 167.62 417.02 164.54 416.64 L 164.49 415.52 C 168.86 415.51 173.24 415.51 177.61 415.52 C 177.63 394.40 177.56 373.28 177.65 352.16 L 178.91 352.21 C 178.98 370.14 179.04 388.08 178.96 406.02 C 179.17 408.13 178.71 410.79 180.24 412.46 C 184.12 413.60 184.47 408.23 185.64 405.78 C 183.12 398.89 182.41 391.55 183.11 384.28 C 183.56 384.44 184.44 384.76 184.89 384.92 C 184.15 392.70 184.51 401.24 189.21 407.83 C 193.16 413.48 200.31 415.91 206.98 415.89 C 214.55 416.25 222.59 413.33 227.21 407.13 C 232.42 400.26 232.46 390.36 228.31 382.98 C 229.45 382.83 230.58 382.68 231.72 382.54 C 232.31 381.90 232.89 381.27 233.48 380.64 C 234.54 380.74 235.60 380.83 236.67 380.94 C 235.76 379.65 234.85 378.36 233.95 377.08 C 235.05 377.34 236.16 377.61 237.27 377.88 C 238.16 376.50 239.05 375.12 239.94 373.75 C 241.23 377.15 243.71 379.86 246.47 382.15 C 243.36 384.41 240.22 386.89 238.42 390.39 C 235.14 396.74 236.31 405.37 241.84 410.12 C 247.25 415.01 254.94 416.13 261.98 415.87 C 268.67 415.68 275.91 413.74 280.36 408.41 C 286.10 401.48 284.62 390.10 277.48 384.68 C 278.59 384.60 279.71 384.52 280.83 384.45 C 281.33 383.81 281.84 383.18 282.35 382.55 C 283.06 383.04 283.78 383.52 284.50 384.02 C 284.37 382.75 284.24 381.49 284.12 380.23 C 284.97 380.73 285.81 381.24 286.67 381.75 C 286.62 380.42 286.58 379.09 286.54 377.77 C 287.51 378.37 288.50 378.99 289.48 379.61 C 290.14 378.03 290.81 376.46 291.47 374.88 C 290.65 370.88 290.69 366.74 291.99 362.85 C 292.33 363.19 292.99 363.89 293.33 364.23 C 292.71 367.59 292.18 371.17 293.51 374.45 C 294.57 377.67 297.21 379.96 299.67 382.14 C 296.69 384.29 293.66 386.62 291.86 389.91 C 288.25 396.27 289.34 405.15 294.92 410.05 C 300.56 415.17 308.65 416.21 315.98 415.82 C 322.58 415.52 329.72 413.38 333.89 407.92 C 337.11 403.87 337.54 398.28 336.45 393.38 C 335.20 388.44 331.29 384.83 327.17 382.14 C 329.08 380.41 331.17 378.75 332.44 376.46 C 335.52 370.95 334.52 363.51 329.97 359.11 C 326.42 355.44 321.34 354.03 316.48 353.13 C 314.60 352.56 312.74 351.90 310.88 351.27 C 314.36 351.25 318.58 352.06 320.81 348.64 C 321.09 348.92 321.66 349.48 321.94 349.76 C 323.52 349.13 325.11 348.51 326.70 347.88 C 326.22 346.57 325.75 345.26 325.27 343.96 C 326.22 344.55 327.16 345.14 328.11 345.74 C 328.29 344.88 328.47 344.02 328.65 343.16 C 329.69 343.02 330.74 342.88 331.79 342.74 C 331.29 341.99 330.79 341.24 330.30 340.49 C 332.42 340.21 334.64 340.11 336.65 339.26 C 337.28 337.64 337.51 335.91 337.83 334.21 C 342.85 333.09 345.96 328.95 348.36 324.72 C 349.68 324.41 351.01 324.09 352.34 323.79 C 352.44 323.50 352.62 322.92 352.72 322.63 C 359.79 317.36 369.16 313.57 372.36 304.65 C 373.30 305.09 374.23 305.53 375.17 305.97 C 375.80 304.28 376.43 302.60 377.09 300.92 C 380.46 300.12 384.46 298.87 385.20 294.97 C 385.94 294.70 386.68 294.42 387.43 294.16 C 387.51 292.96 387.59 291.78 387.68 290.59 C 388.92 290.53 390.16 290.48 391.41 290.42 C 392.22 288.92 392.85 287.28 394.03 286.02 C 396.03 284.78 398.38 284.35 400.63 283.74 C 400.60 282.83 400.58 281.93 400.57 281.02 C 401.40 281.60 402.23 282.18 403.08 282.76 Z" />
</g>
<g id="#ff4a00ff">
<path fill="#ff4a00" opacity="1.00" d=" M 118.49 303.09 C 115.90 301.52 112.63 300.47 111.22 297.55 C 116.82 300.07 122.26 302.97 128.15 304.79 C 153.78 313.29 181.30 312.68 207.86 310.10 C 213.95 309.44 220.00 308.51 226.05 307.59 C 228.50 307.64 230.84 308.48 232.24 310.59 C 230.95 310.53 229.68 310.47 228.40 310.42 C 226.99 311.84 225.45 313.18 223.49 313.77 C 223.05 315.04 222.63 316.32 222.21 317.61 C 220.88 317.71 219.55 317.81 218.22 317.92 C 218.68 318.82 219.14 319.73 219.60 320.64 C 218.32 321.20 217.04 321.77 215.76 322.34 C 215.18 322.04 214.59 321.75 214.01 321.46 C 212.50 323.84 211.00 326.24 209.51 328.64 C 208.50 328.61 207.50 328.59 206.50 328.57 C 205.21 333.62 199.93 335.29 196.59 338.65 C 194.74 340.09 193.13 342.96 190.41 341.98 C 190.13 346.38 183.79 345.82 184.07 350.35 C 183.24 350.33 182.40 350.31 181.57 350.30 C 181.48 350.98 181.39 351.67 181.31 352.36 C 180.50 352.30 179.70 352.25 178.91 352.21 L 177.65 352.16 C 169.41 354.09 161.49 357.22 153.39 359.67 C 154.83 362.96 155.91 366.41 157.64 369.57 C 159.81 370.22 162.28 368.59 164.51 368.25 C 164.45 384.00 164.48 399.76 164.49 415.52 L 164.54 416.64 C 167.62 417.02 170.72 417.27 173.80 417.64 C 173.30 418.67 172.80 419.71 172.30 420.74 C 171.59 420.66 170.88 420.58 170.18 420.51 C 169.59 421.20 168.99 421.90 168.40 422.60 C 168.20 422.34 167.79 421.82 167.58 421.55 C 165.80 423.91 164.10 426.35 162.79 429.01 C 162.05 428.92 161.32 428.83 160.58 428.79 C 160.53 429.99 160.58 431.20 160.62 432.41 C 159.11 432.07 157.26 430.37 156.02 432.05 C 154.35 433.76 153.20 435.90 151.56 437.64 C 150.16 437.67 148.76 437.51 147.36 437.40 C 147.95 438.82 148.52 440.24 149.10 441.67 C 148.19 441.28 147.29 440.90 146.38 440.52 C 145.33 441.67 144.27 442.82 143.20 443.96 C 141.39 444.82 139.33 445.47 138.02 447.08 C 137.44 448.60 137.27 450.24 136.77 451.79 C 135.75 452.95 133.97 452.49 132.61 452.75 C 131.91 454.51 131.72 456.89 129.85 457.84 C 127.92 458.29 125.91 458.26 123.94 458.26 C 108.20 457.15 92.36 453.56 78.63 445.55 C 54.34 431.77 37.13 406.08 34.07 378.27 C 34.09 376.36 34.17 374.46 34.24 372.56 C 35.29 372.90 36.34 373.26 37.41 373.55 C 37.19 372.75 36.94 371.96 36.71 371.17 C 37.13 371.01 37.99 370.67 38.42 370.50 C 38.67 370.17 39.16 369.51 39.41 369.17 C 42.08 367.70 44.45 365.76 46.63 363.64 C 46.59 362.69 46.54 361.75 46.50 360.82 C 47.24 361.47 47.99 362.12 48.73 362.78 C 49.66 360.63 50.58 358.48 51.51 356.33 C 51.80 356.68 52.40 357.37 52.70 357.72 C 52.96 356.87 53.22 356.03 53.49 355.19 C 53.98 356.27 54.47 357.35 54.97 358.44 C 55.53 356.60 56.09 354.77 56.65 352.94 C 57.34 353.52 58.04 354.10 58.74 354.68 C 58.70 353.69 58.67 352.69 58.64 351.70 C 60.34 350.46 62.00 349.16 63.59 347.77 C 64.17 347.72 64.74 347.66 65.32 347.62 C 65.41 347.35 65.60 346.81 65.69 346.54 C 66.91 346.07 68.15 345.65 69.32 345.08 C 69.86 343.59 70.08 342.01 70.40 340.48 C 71.64 340.93 72.88 341.38 74.12 341.84 C 73.52 340.75 72.93 339.69 72.34 338.62 C 73.42 338.60 74.50 338.59 75.59 338.58 C 77.70 335.87 79.74 333.11 81.70 330.30 C 81.88 330.97 82.05 331.64 82.23 332.32 C 83.54 331.54 84.86 330.78 86.20 330.04 C 87.94 325.54 92.47 323.24 96.42 321.00 C 98.32 318.87 100.31 316.80 102.55 315.03 C 106.46 312.79 108.47 308.45 111.92 305.64 C 114.56 306.15 116.82 305.14 118.49 303.09 Z" />
</g>
<g id="#ff3600ff">
<path fill="#ff3600" opacity="1.00" d=" M 456.59 354.18 C 457.32 352.46 458.07 350.76 458.82 349.06 C 459.11 355.15 458.40 361.26 459.16 367.33 C 458.59 380.60 455.55 393.83 449.99 405.93 C 443.59 419.53 433.63 431.38 421.52 440.26 C 406.19 451.60 387.18 457.19 368.28 458.10 C 358.00 457.31 347.68 458.42 337.40 457.66 C 338.24 456.41 339.28 455.32 340.41 454.33 C 340.00 453.98 339.61 453.64 339.22 453.31 C 340.63 453.04 342.05 452.77 343.47 452.52 C 343.74 450.79 344.01 449.07 344.28 447.35 C 344.96 447.92 345.65 448.50 346.34 449.08 C 347.06 447.53 347.78 445.99 348.51 444.45 C 349.16 444.42 349.81 444.39 350.46 444.37 C 351.37 443.01 352.29 441.65 353.20 440.31 C 353.97 440.78 354.74 441.26 355.51 441.75 C 356.63 440.81 357.57 439.69 358.08 438.30 C 359.55 437.49 361.39 437.03 362.38 435.58 C 362.51 434.11 362.37 432.63 362.34 431.17 C 364.11 431.55 365.89 431.93 367.68 432.32 C 367.73 430.96 367.79 429.61 367.85 428.27 C 368.57 428.75 369.29 429.25 370.01 429.74 C 370.19 426.99 371.75 424.93 374.25 423.82 C 374.46 424.46 374.88 425.74 375.08 426.38 C 375.58 424.44 376.12 422.51 376.67 420.59 C 377.44 420.57 378.22 420.54 379.00 420.53 C 380.26 418.48 381.99 416.86 384.57 417.11 C 385.01 415.79 385.37 414.43 385.99 413.18 C 387.41 412.47 389.22 412.53 390.44 411.44 C 391.03 410.26 391.33 408.96 391.68 407.69 C 395.36 405.38 398.75 402.52 402.88 401.01 C 402.35 399.85 401.83 398.70 401.31 397.55 C 403.77 397.31 406.43 397.29 408.53 395.80 C 408.52 394.72 408.41 393.65 408.33 392.58 C 409.49 392.86 410.66 393.15 411.83 393.44 C 411.36 392.71 410.89 391.99 410.43 391.27 C 410.92 391.06 411.90 390.64 412.39 390.43 C 412.62 390.01 413.07 389.18 413.30 388.77 C 414.44 388.60 415.58 388.43 416.73 388.26 C 418.00 385.38 420.44 383.38 423.21 382.02 C 423.37 381.41 423.53 380.81 423.70 380.21 C 424.69 380.40 425.69 380.59 426.69 380.79 C 426.28 380.00 425.87 379.22 425.47 378.45 C 428.72 376.42 431.82 374.10 434.21 371.08 C 435.27 370.57 436.33 370.08 437.40 369.59 C 437.34 368.84 437.28 368.10 437.22 367.36 C 438.49 367.79 439.76 368.23 441.04 368.67 C 440.51 367.91 439.99 367.16 439.47 366.41 C 440.94 365.92 442.48 365.57 443.84 364.81 C 444.19 363.74 444.41 362.64 444.67 361.56 C 445.64 361.65 446.62 361.74 447.61 361.84 C 449.07 357.54 452.97 354.92 455.73 351.52 C 455.94 352.19 456.38 353.51 456.59 354.18 Z" />
</g>
<g id="#ff4200ff">
<path fill="#ff4200" opacity="1.00" d=" M 256.45 364.66 C 259.47 364.06 262.92 363.83 265.70 365.40 C 268.34 366.88 268.85 370.79 266.96 373.08 C 265.23 375.10 262.66 376.47 260.01 376.77 C 256.72 375.89 252.63 373.92 252.48 370.02 C 252.15 367.49 254.08 365.24 256.45 364.66 Z" />
</g>
<g id="#ff3f00ff">
<path fill="#ff3f00" opacity="1.00" d=" M 309.51 364.70 C 313.37 363.85 319.32 363.58 321.01 368.09 C 322.46 372.85 317.28 376.35 313.15 376.78 C 310.38 376.02 307.39 374.63 306.04 371.94 C 304.70 369.08 306.39 365.39 309.51 364.70 Z" />
</g>
<g id="#ff4300ff">
<path fill="#ff4300" opacity="1.00" d=" M 205.42 385.59 C 208.77 384.89 212.81 385.11 215.32 387.72 C 217.88 390.49 218.09 394.67 217.19 398.17 C 215.44 404.66 206.38 406.32 201.42 402.61 C 196.21 397.89 198.03 387.05 205.42 385.59 Z" />
</g>
<g id="#ff4000ff">
<path fill="#ff4000" opacity="1.00" d=" M 258.51 388.68 C 260.98 387.55 263.48 389.27 265.58 390.44 C 268.52 392.13 270.96 395.54 269.98 399.07 C 269.44 401.95 266.71 403.84 263.95 404.26 C 260.36 404.78 256.35 404.87 253.16 402.92 C 250.54 401.31 249.86 397.76 250.80 395.00 C 252.13 391.75 255.37 389.86 258.51 388.68 Z" />
</g>
<g id="#ff3d00ff">
<path fill="#ff3d00" opacity="1.00" d=" M 312.40 388.43 C 317.98 388.22 325.23 393.77 322.85 400.01 C 321.27 404.24 316.01 404.76 312.12 404.54 C 308.27 404.58 303.57 402.38 303.58 397.97 C 303.16 392.89 308.17 389.76 312.40 388.43 Z" />
</g>
</svg>
