<?xml version="1.0" encoding="utf-8"?>
<!-- Generator: Adobe Illustrator 24.0.2, SVG Export Plug-In . SVG Version: 6.00 Build 0)  -->
<svg version="1.1" id="Layer_1" xmlns="http://www.w3.org/2000/svg" xmlns:xlink="http://www.w3.org/1999/xlink" x="0px" y="0px"
	 viewBox="0 0 800 600" style="enable-background:new 0 0 800 600;" xml:space="preserve">
<g>
	<g id="XMLID_1_">
		<g>
			<path d="M796,487.5h-23h-11.9c-1.1-6.5-2.8-11.1-5.1-13.7c-3.7-4.2-10.1-6.4-18.9-6.4c-8.7,0-14.7,1.6-18,4.9
				c-2.5,2.4-3.9,5.8-3.9,10c0,6,7.4,10.7,21.9,14.4c16.6,4.1,28.5,7.6,35.9,10.4c1.9,0.8,3.6,1.5,4.8,2.2
				c14.8,7.9,22.2,19.8,22.2,35.8c0,19.5-7.2,33.8-21.5,42.7c-1.8,1.1-3.5,2-5.4,3c-9.3,4.5-20.1,6.8-32.3,6.8
				c-18.2,0-32.9-3.7-44.1-10.9c-7-4.6-12.3-10.4-15.8-17.4c-3.5-7-5.3-15.2-5.3-24.5h36.6c0,7.1,2.3,12.6,6.7,16.4
				c4.5,3.9,12,6,22.7,6c8.1,0,14.1-1.9,18.1-5.7c3.1-3,4.6-6.3,4.6-10c0-6.4-7.2-11.4-21.5-14.9c-21.4-5.2-34.9-9.4-40.4-12.4
				c-14.7-7.7-21.9-19.7-21.9-36.2c0-13.3,3.7-24.5,11.4-33.8c9.6-11.5,24.1-17.2,43.2-17.2c15.8,0,28.4,2.6,37.9,7.6
				c0.8,0.4,1.6,0.8,2.3,1.4c6.9,4.2,12,9.8,15.5,16.7C794.3,469.6,796,477.9,796,487.5z"/>
			<path d="M777.4,391.5c0-0.8-0.1-1.5-0.5-2c-0.4-0.7-0.8-1.1-1.6-1.3c-0.5-0.1-1.2-0.3-2.3-0.4h-1.3h-4.2v7.6h4.4
				c0.4,0,0.8,0,1.1,0c1.6-0.1,2.7-0.4,3.3-1.1C777,393.5,777.4,392.5,777.4,391.5z M780.3,387.4c0.7,1.1,1.1,2.3,1.1,3.7
				c0,1.9-0.6,3.5-1.8,4.9c-1.2,1.4-2.8,2.2-4.7,2.3c0.8,0.4,1.4,0.8,1.9,1.4l3.4,5l2.6,5h-4.3l-2.1-4.1c-1.3-2.6-2.4-4.5-3.4-5.4
				c-0.1-0.1-0.2-0.3-0.5-0.4l-2.9-0.9h-2.2v10.8h-3.6v-25.5h7.8c0.5,0,1,0.1,1.3,0.1c1.9,0,3.4,0.3,4.3,0.7
				C778.6,385.3,779.5,386.1,780.3,387.4z"/>
			<path d="M790.5,396.6c0-3.5-0.7-6.8-2.3-9.9c-1.6-3.1-3.7-5.6-6.5-7.3c-2.8-1.6-5.7-2.6-8.6-2.6c-0.1,0-0.1,0-0.1,0
				c-2.9,0-5.8,1-8.5,2.6c-2.8,1.8-4.9,4.2-6.5,7.3c-1.6,3.1-2.4,6.4-2.4,9.9c0,3.4,0.8,6.6,2.4,9.8c1.5,3,3.6,5.4,6.4,7.2
				c2.8,1.8,5.7,2.6,8.7,2.6c0,0,0,0,0.1,0c3,0,5.9-0.8,8.7-2.6c2.8-1.7,4.9-4.2,6.4-7.2C789.8,403.2,790.5,400,790.5,396.6z
				 M794,396.6c0,3.9-0.9,7.9-2.8,11.7c-1.8,3.8-4.3,6.7-7.7,8.7c-3.4,2.2-6.7,3.1-10.4,3.1c-0.1,0-0.1,0-0.1,0
				c-3.6,0-7-0.9-10.3-3.1c-3.4-2-5.9-4.9-7.7-8.7c-1.9-3.8-2.8-7.7-2.8-11.7c0-4.2,0.8-8.1,2.8-12c1.9-3.8,4.5-6.6,7.8-8.7
				c3.4-2,6.7-3,10.2-3.1c0,0,0,0,0.1,0c3.5,0,6.9,1.1,10.2,3.1c3.4,2,6,4.9,7.8,8.7C793.1,388.5,794,392.4,794,396.6z"/>
			<polygon points="589.2,204.9 688.1,390.5 589.2,390.5 529.3,390.5 434.9,213.2 363.4,79 434.9,30.5 479.9,0 			"/>
			<path d="M661,519.4v76.1h-32.9v-8.4c-11.1,8.1-24.3,12.9-38.5,12.9c-0.1,0-0.2,0-0.4,0c-39.2-0.3-71.1-36.4-71.1-80.6
				c0-44.2,31.9-80.3,71.1-80.6c0.1,0,0.2,0,0.4,0c14.2,0,27.4,4.8,38.5,12.9v-8.8H661V519.4z M628.1,527.8V511
				c-3.5-20.4-19.5-35.8-38.5-35.8c-0.1,0-0.2,0-0.4,0c-21.5,0.1-39,20-39,44.2c0,24.3,17.5,44.1,39,44.4c0.1,0,0.2,0,0.4,0
				C608.6,563.8,624.6,548.2,628.1,527.8z"/>
			<path d="M506.6,519.4v76.1h-32.9v-8.4c-11.2,8.1-24.3,12.9-38.5,12.9c-0.1,0-0.2,0-0.4,0c-39.2-0.3-71.1-36.4-71.1-80.6
				c0-44.2,31.9-80.3,71.1-80.6c0.1,0,0.2,0,0.4,0c14.2,0,27.3,4.8,38.5,12.9v-61.2h32.9V519.4z M473.8,527.8V511
				c-3.5-20.4-19.5-35.8-38.5-35.8c-0.1,0-0.2,0-0.4,0c-21.6,0.1-39,20-39,44.2c0,24.3,17.4,44.1,39,44.4c0.1,0,0.2,0,0.4,0
				C454.3,563.8,470.3,548.2,473.8,527.8z"/>
			<polygon points="434.9,317.5 473.7,390.5 434.9,390.5 315,390.5 226.9,225.2 223.1,218 226.9,215.5 339.7,138.9 			"/>
			<rect x="315.1" y="438.8" width="35.7" height="156.7"/>
			<rect x="315.1" y="391.3" width="35.7" height="35.4"/>
			<path d="M298.8,519.4v76.1h-32.9v-8.4c-11.2,8.1-24.4,12.9-38.6,12.9c-0.1,0-0.2,0-0.4,0c-39.2-0.3-71.1-36.4-71.1-80.6
				c0-44.2,31.9-80.3,71.1-80.6c0.1,0,0.2,0,0.4,0c14.2,0,27.5,4.8,38.6,12.9v-61.2h32.9V519.4z M265.9,527.8V511
				c-3.5-20.4-19.5-35.8-38.6-35.8c-0.1,0-0.2,0-0.4,0c-21.6,0.1-39,20-39,44.2c0,24.3,17.4,44.1,39,44.4c0.1,0,0.2,0,0.4,0
				C246.4,563.8,262.4,548.2,265.9,527.8z"/>
			<polygon points="226.9,329.4 259.4,390.5 226.9,390.5 100.6,390.5 82.8,357 199.5,278 			"/>
			<path d="M142.9,519.4v76.1H110v-8.4C98.8,595.2,85.6,600,71.4,600c-0.1,0-0.2,0-0.4,0c-39.1-0.3-71-36.4-71-80.6
				c0-44.2,31.9-80.3,71-80.6c0.1,0,0.2,0,0.4,0c14.2,0,27.4,4.8,38.6,12.9v-8.8h32.9V519.4z M110,527.8V511
				c-3.5-20.4-19.5-35.8-38.6-35.8c-0.1,0-0.2,0-0.4,0c-21.4,0.1-38.9,20-38.9,44.2c0,24.3,17.4,44.1,38.9,44.4c0.1,0,0.2,0,0.4,0
				C90.5,563.8,106.5,548.2,110,527.8z"/>
		</g>
	</g>
</g>
</svg>
