<?xml version="1.0" encoding="utf-8"?>
<!-- Generator: Adobe Illustrator 24.0.2, SVG Export Plug-In . SVG Version: 6.00 Build 0)  -->
<svg version="1.1" id="Layer_1" xmlns="http://www.w3.org/2000/svg" xmlns:xlink="http://www.w3.org/1999/xlink" x="0px" y="0px"
	 viewBox="0 0 2000 2000" style="enable-background:new 0 0 2000 2000;" xml:space="preserve">
<style type="text/css">
	.st0{clip-path:url(#SVGID_2_);}
	.st1{fill:#FF6600;}
</style>
<g>
	<defs>
		<rect id="SVGID_1_" x="-1617" y="-7467" width="9787" height="16933.4"/>
	</defs>
	<clipPath id="SVGID_2_">
		<use xlink:href="#SVGID_1_"  style="overflow:visible;"/>
	</clipPath>
	<g transform="matrix(1.33333 0 0 -1.33333 -132.7749 602.1895)" className="st0">
		<path d="M275.4-632c-6,0.8-15.3,7.3-22,13.9c-63.1,75.7,17.9,162.6,111.7,213.1v143.9c21.9-17.1,33.9-17.9,34.6-20.3l71.8,87
			l-23.9,74.9C657.6-31,742,3.2,912.9,38.1l-30.6,35l49.9,34.9c115-46.4,223.4-58.5,204.7-176.5c4.7,79.7-76.4,110.6-200.1,152.9
			l-23.9-17.9l45.8-46.4C754-22.9,628.3-71.7,478.8-135.1l20.6-65.1l-75.1-90.3c12.7-4.1,143.6-57.7,279.8,58.5c0,0,2.7,2.5,2.7,3.3
			c-4,8.1-13.3,17.1-24.6,29.3c39.9-3.3,65.8-46.3,61.1-91.1h-18.6c1.3,14.6-1.3,30.1-5.3,40.7C613.7-344.1,491.4-358,387-313.2
			v-111.4c-50.5-22-141-90.2-140.3-156.2C250.1-612.5,263.4-623.9,275.4-632"/>
		<path className="st1" d="M707.1-594.7C594-664.6,485.7-720.7,318.8-728.9c-217.4,5.7-251.3,182.2-148.2,366.8
			C267.7-175.8,421.9-7.5,667.2,97.5c71.1,30.8,175.5,65.8,276.5,67.5c144.9,1.6,285.9-53.7,276.5-223.7
			c-5.3-130.1-158.8-313.9-240-445.7c-34.6-57.7-40.6-95.1,18.6-91.9c214.8,17.1,409.5,108.2,590.3,202.5
			c-122.3-101.7-754.5-484.7-757.1-223.7c0.6,33.4,13.3,68.3,33.9,105.7c20,37.4,47.9,76.5,76.5,116.3
			c43.2,60.2,150.2,204.1,186.1,290.3c60.5,163.4-75.1,171.6-192.1,222L886.5,82l30.6-35C746.3,12,661.9-22.1,451.8-110.8l23.9-74.8
			l-71.8-87c-2,2.4-12.6,3.2-34.6,20.3v-143.9c-93.8-50.4-174.8-137.4-111.7-213.1c6.6-6.5,16-13,22-13.9
			C394.6-702.8,707.7-594.7,707.1-594.7 M1383.3-306.4h14.9c3.2,0,5.6,0.4,7.3,1.1c1.9,0.8,3.2,2.2,4.1,3.9c0.9,1.9,1.4,3.6,1.4,5.7
			c0,3-0.9,5.6-2.7,7.5c-1.8,1.9-4.6,2.9-8.4,2.9h-16.6V-306.4z M1376.3-342.6v64.4h23.3c4.6,0,8.2-0.6,10.6-1.6
			c2.5-1.3,4.3-3.2,5.8-6.3c1.5-2.9,2.2-6.1,2.2-9.7c0-4.6-1.2-8.5-3.6-11.6c-2.5-3-6.1-5-11.2-6c1.9-1,3.2-2.1,4.2-3.2
			c1.9-2.4,3.9-5.1,5.7-8.6l9.2-17.6h-8.7l-6.9,13.3c-2,4-3.8,6.9-5,9c-1.3,2-2.5,3.5-3.6,4.3c-1.1,0.8-2,1.4-3.1,1.8
			c-0.8,0.1-2.1,0.2-3.9,0.2h-8v-28.6H1376.3z"/>
		<path className="st1" d="M1397.5-372.4c27.7,0,50.1,27.5,50.1,61.2c0,33.9-22.5,61.3-50.1,61.3c-27.6,0-50-27.5-50-61.3
			C1347.5-344.9,1369.9-372.4,1397.5-372.4 M1355.3-311.2c0,28.6,18.9,51.7,42.3,51.7c23.3,0,42.3-23.2,42.3-51.7
			c0-28.4-19-51.6-42.3-51.6C1374.2-362.8,1355.3-339.6,1355.3-311.2"/>
	</g>
</g>
</svg>
