<?xml version="1.0" encoding="utf-8"?>
<!-- Generator: Adobe Illustrator 24.0.2, SVG Export Plug-In . SVG Version: 6.00 Build 0)  -->
<svg version="1.1" id="Layer_1" xmlns="http://www.w3.org/2000/svg" xmlns:xlink="http://www.w3.org/1999/xlink" x="0px" y="0px"
	 viewBox="0 0 1125 1125" style="enable-background:new 0 0 1125 1125;" xml:space="preserve">
<style type="text/css">
	.st0{fill:#00A1E9;}
</style>
<path className="st0" d="M183.2,8.3C84.4,8.3,4.5,87.6,4.5,185.5v751.4c0,97.8,80,177.1,178.8,177.1h758.6
	c98.8,0,178.7-79.3,178.7-177.1v-7.7c-3.3-1.4-290.1-119.9-435.8-189.3c-98.3,119.9-225.1,192.6-356.8,192.6
	c-222.7,0-298.3-193.1-192.8-320.1c23-27.7,62.1-54.2,122.8-69c94.9-23.1,246,14.4,387.7,60.7c25.5-46.5,46.9-97.7,62.9-152.2H272
	v-43.8h225v-78.5H224.4v-43.8H497v-112c0,0,0-18.9,19.3-18.9h110v130.9h269.5v43.8H626.3v78.5h219.9c-21,85.4-53,164-93.1,233.1
	c66.8,23.9,126.7,46.6,171.3,61.4c149,49.4,190.7,55.4,196.1,56V185.5c0-97.9-80-177.2-178.7-177.2L183.2,8.3L183.2,8.3z
	 M305.6,607.4c-9.6,0.1-19.2,0.6-28.8,1.6c-27.9,2.8-80.2,15-108.8,40c-85.8,74.1-34.4,209.6,139.2,209.6
	c100.9,0,201.8-63.9,281-166.3C486,642.9,398,606.3,305.6,607.4L305.6,607.4z"/>
</svg>
