<?xml version="1.0" encoding="utf-8"?>
<!-- Generator: Adobe Illustrator 24.0.2, SVG Export Plug-In . SVG Version: 6.00 Build 0)  -->
<svg version="1.1" id="Layer_1" xmlns="http://www.w3.org/2000/svg" xmlns:xlink="http://www.w3.org/1999/xlink" x="0px" y="0px"
	 viewBox="0 0 2000 1000" style="enable-background:new 0 0 2000 1000;" xml:space="preserve">
<style type="text/css">
	.st0{fill-rule:evenodd;clip-rule:evenodd;}
</style>
<path d="M1101.3,245.8c-179.7,0-315.6,139.6-315.6,312.4c0,182.3,141.6,312.4,315.6,312.4s315-130.2,315-312.4
	C1416.4,385.4,1281,245.8,1101.3,245.8z M1101.3,410.9c77.6-0.5,141.1,65.6,141.1,147.4c0,81.2-63.5,147.4-141.1,147.4
	c-77.6,0-141.1-66.1-141.1-147.4C960.2,476.5,1023.7,410.9,1101.3,410.9L1101.3,410.9z M2000.2,761.3c0,60.4-48.9,109.4-109.4,109.4
	c-60.4,0-109.4-49-109.4-109.4c0-60.4,48.9-109.4,109.4-109.4C1951.3,652,2000.2,700.9,2000.2,761.3L2000.2,761.3z M1681.9,849.9
	h-171.8V74h171.8V849.9z"/>
<path className="st0" d="M0,849.9L312.4,74h161.4l307.2,775.9H562.4l-36.5-109.4H255.2l-36.5,109.4H0z M473.9,579.1H312.4l80.7-260.4
	L473.9,579.1z"/>
</svg>
