<?xml version="1.0" ?><!DOCTYPE svg  PUBLIC '-//W3C//DTD SVG 1.1//EN'  'http://www.w3.org/Graphics/SVG/1.1/DTD/svg11.dtd'><svg height="1.04167in" style="shape-rendering:geometricPrecision; text-rendering:geometricPrecision; image-rendering:optimizeQuality; fill-rule:evenodd; clip-rule:evenodd" version="1.1" viewBox="0 0 66 66" width="1.04167in" xml:space="preserve" xmlns="http://www.w3.org/2000/svg" xmlns:xlink="http://www.w3.org/1999/xlink"><defs><style type="text/css">
   <![CDATA[
    .fil0 {fill:#FFDC00}
    .fil2 {fill:white}
    .fil1 {fill:black;fill-rule:nonzero}
   ]]>
  </style></defs><g id="Layer_x0020_1"><g id="_320501176"><rect className="fil0" height="65.8587" rx="6" ry="6" width="65.8587"/><path className="fil1" d="M24 34l17 0c3,0 6,1 8,3 1,1 1,2 2,3 0,0 0,-1 1,-2 -1,0 -1,-1 -1,-1 0,-2 1,-2 2,-2 1,0 2,0 2,2 0,1 -1,1 -2,1l-1 3 2 1c1,-1 1,-1 2,-1 1,0 2,1 2,2 0,1 -1,2 -2,2 -1,0 -2,-1 -2,-2 0,0 -2,-1 -2,-1l0 0c0,1 0,2 0,3l0 1c0,3 -1,6 -3,7 -2,2 -5,3 -8,3l-17 0c-2,0 -5,-1 -7,-3 -1,-1 -2,-3 -3,-4l-6 -3 6 -4c1,-2 2,-3 3,-5 2,-2 5,-3 7,-3zm19 3l0 17c2,-1 3,-1 4,-2 1,-2 2,-4 2,-6l0 -1c0,-2 -1,-4 -2,-6 -1,-1 -2,-2 -4,-2zm-4 17l0 -17 -4 0 0 17 4 0zm-8 0l0 -17 -4 0 0 17 4 0zm-8 0l0 -17c-2,0 -3,1 -4,2 -1,2 -2,4 -2,6l0 1c0,2 1,4 2,6 1,1 2,1 4,2z"/><path className="fil2" d="M39 9c8,0 15,6 15,13 0,5 -4,9 -10,11l-7 4 0 -3c-7,-1 -13,-6 -13,-12 0,-7 7,-13 15,-13z"/><path className="fil2" d="M24 15c1,0 1,0 1,0 -1,2 -2,4 -2,7 0,5 3,9 8,11 -1,1 -3,1 -4,1 0,1 0,3 0,3l-5 -2 0 0c-5,-1 -9,-5 -9,-10 0,-6 5,-10 11,-10z"/></g></g></svg>