<svg id="Layer_2" data-name="Layer 2" xmlns="http://www.w3.org/2000/svg" viewBox="0 0 383.68 478.02"><defs><style>.cls-1{fill:#b2b7b7;}.cls-2{fill:#231f20;}.cls-3{fill:#6fcaca;}.cls-4{fill:#fff;}</style></defs><title>Bigo Live</title><path className="cls-1" d="M184.2,410.29s-38.31,2-65.77,17.52a17.34,17.34,0,0,0-4.31,26.86c22.64,24.64,78.67,75.57,174.71,78.85a125,125,0,0,0,22.53-1.34c29.3-4.36,103.27-20.54,159.63-76.82,10.5-10.48,7.41-28.37-6.13-34.42-6.86-3.07-16.3-5.72-29.28-7.33C384.43,407.29,184.2,410.29,184.2,410.29Z" transform="translate(-109.55 -55.56)"/><path className="cls-2" d="M476.22,334.77c-14.72-4.35-26.82-.42-36,5.69-9.57-13.3-24.19-17.68-29.32-18.85A180.63,180.63,0,0,0,401.5,306c.89-.43,1.79-.88,2.68-1.35,29.95-15.56,46.44-38.89,47.68-67.45s-10-40.13-14.55-43.66c0-9.06-1.87-47-30.36-76.72-19.58-20.44-47.3-32.27-82.53-35.35C321,73.6,306.35,47.9,264.74,57.8c-31.19,7.43-39,29.8-40.93,39.08-11.61-2.45-46.59-6.9-68.25,21.72-21,27.74-5.93,54.34,1.31,64.28-9.89,3.92-31,15.78-33,46.14-1.95,29.77,18,40.21,28.73,43.65-5.81,6.54-14.28,19.74-9.91,37.86,3.6,15,14.94,21.23,24.94,23.26-6,4.74-12.37,12.25-11.66,22.31a28.18,28.18,0,0,0,1.94,8.31,18.47,18.47,0,0,0-15.86,6.71c-5.85-4.6-15.37-8.54-23.76-1.31-4.71,4.06-6.66,13.28-5.1,24.09,1.5,10.31,10.21,45.58,59.66,68.18,4.49,5.9,34.16,42.11,84.84,42.1,3,0,6.06-.16,9.19-.43,4.56,8.5,11.52,16.56,21.89,18.41a34,34,0,0,0,5.92.51c20.09,0,44.62-16.56,56.58-45,7.6-1,33.09-6.23,53.58-30.71a15.92,15.92,0,0,0,3,5.61c3.28,3.87,8.23,5.82,14.73,5.82h.28c40.32-.35,64.88-46.34,69.45-78.89C495.67,355.82,489.48,338.69,476.22,334.77Z" transform="translate(-109.55 -55.56)"/><path className="cls-3" d="M152,230.34a217,217,0,0,1,5.75-40.43c-8.91,3.8-25.31,14.17-27,39.56-1.67,25.6,15.33,34.08,24.11,36.75A140.6,140.6,0,0,1,152,230.34Z" transform="translate(-109.55 -55.56)"/><path className="cls-3" d="M173.21,322.79c-1.74-5.65-3.93-11.54-6.24-17.79-3.21-8.61-6.57-17.72-9.32-27.58-4.82,5.47-11.84,16.47-8.22,31.48,3.84,16,18.09,18.47,25,18.72C174.09,326,173.68,324.34,173.21,322.79Z" transform="translate(-109.55 -55.56)"/><path className="cls-3" d="M167.17,367.22l.09.16a46.66,46.66,0,0,0,8.34,9.21c.94-9.21,2.05-25.45.32-40.16-5.28,3.31-13.67,10.05-13,19.18A24.47,24.47,0,0,0,167.17,367.22Z" transform="translate(-109.55 -55.56)"/><path className="cls-3" d="M178.19,140.88A122.79,122.79,0,0,1,217,102.62c-13.33-2-39-2.16-55.89,20.16-17.58,23.23-6.45,45.07.21,54.53A152.14,152.14,0,0,1,178.19,140.88Z" transform="translate(-109.55 -55.56)"/><path className="cls-4" d="M434.74,344.67c-5.7-8-13.69-12.28-19.44-14.48a156.2,156.2,0,0,1,9.5,25.16A69.5,69.5,0,0,1,434.74,344.67Z" transform="translate(-109.55 -55.56)"/><path className="cls-3" d="M169.77,391.12a63.38,63.38,0,0,1,4.26-6.89,56.71,56.71,0,0,1-11.81-12c-9.85-3-14.28,2.18-15.72,4.57C150.33,388.14,164.44,390.6,169.77,391.12Z" transform="translate(-109.55 -55.56)"/><path className="cls-3" d="M316.52,81c-4.65-8.4-17.93-24.12-50.18-16.44C242,70.33,234,86,231.39,94.93q31.25-14.21,73.87-14.26C309.1,80.67,312.83,80.79,316.52,81Z" transform="translate(-109.55 -55.56)"/><path className="cls-4" d="M395.11,309a155.18,155.18,0,0,1-35.68,10.6,3.47,3.47,0,0,1-1-6.86c.84-.12,83.77-12.81,86.5-75.79,1.31-30.22-12.21-38.2-12.78-38.52a3.53,3.53,0,0,1-1.8-3.18c0-.42,1.38-42.55-28.47-73.65-21.65-22.56-54.16-34-96.63-34-31.89,0-56.94,6.22-76.59,16.36h0a3.67,3.67,0,0,1-.79.4c-35.6,18.69-53.3,50.32-61.82,80.93,0,.1,0,.21,0,.32a2,2,0,0,1-.1.21,210.39,210.39,0,0,0-6.95,44.86,135.51,135.51,0,0,0,3.9,39.2h0c2.88,11.86,6.87,22.62,10.62,32.7,2.35,6.34,4.58,12.33,6.37,18.17,7.59,24.74,2,62.71,1.73,64.31a3.42,3.42,0,0,1-.76,1.7c-6,7.23-12.31,23.76-12.37,23.93a3.47,3.47,0,0,1-3.24,2.24,3.26,3.26,0,0,1-1.22-.23,3.46,3.46,0,0,1-2-4.46c.14-.37,1.91-5,4.51-10.56-8-1.2-22.57-5.31-26.78-19.43-2.14-2.09-10.12-9-16.86-3.2-2.29,2-4.13,8.39-2.76,17.84s9.51,42.1,56.47,63.24a3.46,3.46,0,0,1,1.42,1.18c.3.44,30.82,43,85.81,39.74a83,83,0,0,1-4.63-15.83,3.46,3.46,0,1,1,6.83-1.15,78.62,78.62,0,0,0,6,18.35.08.08,0,0,0,0,0c3.74,7.76,9.51,15.35,18,16.87,19.61,3.49,48.25-15.84,58-49.16,11.24-38.31,12.21-66.27,2.82-80.85-4.4-6.82-11-10.77-20.09-12.07-37.48-5.31-56.73,39-56.92,39.48a3.47,3.47,0,0,1-6.39-2.69,95.7,95.7,0,0,1,12.62-20.19c-13.78-12.12-29.94-1.61-30.65-1.13a3.47,3.47,0,0,1-3.87-5.75c7.57-5.11,24.91-10.81,39.1,1.68,10.68-11.17,26.34-21.19,47.09-18.25,11.07,1.57,19.46,6.67,24.93,15.17,10.67,16.55,10,45.67-2,86.55-.21.72-.44,1.42-.67,2.12,10.29-1.91,33.26-8.93,50.53-34.12.09-.15.19-.3.29-.44a111.2,111.2,0,0,0,14.57-31.9C430.76,364.39,402.24,319.39,395.11,309Zm5.38-121.27c6.47-1.26,13.15,5.11,14.93,14.22s-2,17.52-8.5,18.78-13.16-5.1-14.94-14.21S394,189,400.49,187.72Zm-85.28,18.49c8.69,0,15.73,7.86,15.73,17.57s-7,17.57-15.73,17.57-15.73-7.87-15.73-17.57S306.52,206.21,315.21,206.21ZM325.55,332c-2.46,2.31-6.69,4.92-13.47,5.28-.28,4.4-1.58,11.83-6.73,17.44C301,359.5,294.88,362,287.19,362c-8.8.12-14-2.48-16.63-4.51-4.26,2.66-9.89,6.55-11.72,8.87A3.45,3.45,0,0,1,254,367a3.46,3.46,0,0,1-.58-4.86c3.68-4.69,14.63-11.19,15.87-11.91a3.45,3.45,0,0,1,4.59,1c.08.09,3.18,3.9,12.89,3.9h.37c5.69-.06,10.11-1.75,13.12-5,5.55-6.05,5-15.88,5-16a3.44,3.44,0,0,1,1-2.69,3.5,3.5,0,0,1,2.68-1c6.49.4,10.06-1.62,11.93-3.38a8,8,0,0,0,2.68-5.61,2.7,2.7,0,0,0-.78-2.11c-1.43-1.41-4.47-1.62-5.23-1.64H293.76a3.48,3.48,0,0,1-3.44-3.9c.4-3.2.28-9.18-1.71-11.6a2.42,2.42,0,0,0-1.85-.95c-4.54-.27-9.18,9.1-10.6,13.45a3.5,3.5,0,0,1-2,2.12,9.33,9.33,0,0,0-5.55,7.38,3.47,3.47,0,0,1-3.25,3.17c-25.67,1.52-31.87-12.58-32.13-13.18a3.46,3.46,0,0,1,6.37-2.72c.23.48,4.68,9.37,22.77,9.08a16,16,0,0,1,7.68-9.44c1.74-4.61,7.48-17.44,17.16-16.77a9.36,9.36,0,0,1,6.73,3.47c2.94,3.58,3.48,9.18,3.46,13h20c.61,0,6.45,0,10.14,3.63a9.66,9.66,0,0,1,2.84,7.05A14.84,14.84,0,0,1,325.55,332ZM349,273.26c-16.26,0-35.62-3.05-58.48-11a3.46,3.46,0,1,1,2.27-6.54c43.36,15,80.09,14,106.23-2.86,19.69-12.73,26.71-30.19,26.77-30.37a3.47,3.47,0,0,1,6.46,2.51c-.31.79-7.72,19.46-29.11,33.44C391.38,266.18,373.8,273.26,349,273.26Z" transform="translate(-109.55 -55.56)"/><path className="cls-4" d="M474.25,341.41c-13.53-4-24.45.24-32.43,6.22a3.53,3.53,0,0,1-.75.63l-.19.08A60.09,60.09,0,0,0,427,364.4c2.64,13.3,3,27.52-.93,41.32a116.59,116.59,0,0,1-15.16,33.18c-.14,1.49-.34,6.09,2.32,9.19,1.93,2.26,5.23,3.36,9.64,3.35,36.2-.32,58.43-42.84,62.65-72.93C488.25,358.81,483.84,344.25,474.25,341.41Z" transform="translate(-109.55 -55.56)"/><polygon className="cls-3" points="367.36 142.04 382.43 136.65 367.36 131.25 361.07 106.2 354.78 131.25 339.71 136.65 354.78 142.04 361.07 167.09 367.36 142.04"/><path className="cls-3" d="M342.14,404c-15.59-3.76-34.37,18.65-41.94,50.05-6.2,25.73-2.94,49.5,7,59.32,16.41-5.95,33.65-22.82,40.8-47.19,5-17.19,8-32.28,8.9-45C354,412,348.92,405.63,342.14,404Z" transform="translate(-109.55 -55.56)"/><path className="cls-3" d="M432.91,450.21c30.24-7.18,48.77-44.51,52.58-71.7a74.76,74.76,0,0,0,.7-14.56c-10.48,12.49-20.08,30.26-26.95,45.63C452.7,424.2,441.31,439.74,432.91,450.21Z" transform="translate(-109.55 -55.56)"/></svg>