<?xml version="1.0" encoding="utf-8"?>
<!-- Generator: Adobe Illustrator 24.0.2, SVG Export Plug-In . SVG Version: 6.00 Build 0)  -->
<svg version="1.1" id="Layer_1" xmlns="http://www.w3.org/2000/svg" xmlns:xlink="http://www.w3.org/1999/xlink" x="0px" y="0px"
	 viewBox="0 0 2000 2000" enable-background="new 0 0 2000 2000" xml:space="preserve">
<path fill="#0566B0" d="M1102.958,1577.219c0,0,9.001,36.212,31.209,22.564c22.208-13.625,31.216-34.075,53.424-34.075
	c22.208,0,114.793-15.901,137.001,0c22.208,15.911,24.433,2.264,35.533,2.264c11.107,0,43.731,5.296,43.731,5.296
	c28.394-2.712,22.605-43.955,2.08-56.03c-29.618-21.197-69.496-34.822-99.116-56.042c-2.967-20.45-5.92-40.888-8.881-61.338
	c8.14-10.591,16.286-21.196,24.433-31.812c0-34.064,0-68.138,0-102.225c-4.444-9.088-8.888-18.175-13.325-27.263
	c-1.484-25.746-2.967-51.481-4.444-77.238c-3.702-4.549-7.405-9.088-11.107-13.637c0-9.834,0-19.679,0-29.537
	c7.405-9.835,22.402-19.68,29.814-29.526c2.218-18.934-7.713-32.294-5.488-51.228c-5.185-24.23-5.815-54.031-11-78.272
	c0-29.526,0-59.063,0-88.601c21.486-5.847,26.691-14.556,28.23-23.356c1.967-11.328-4.105-24.666-10.46-51.618
	c-2.961-141.608-4.4-288.789-7.361-430.41c11.811-16.922,25.98-25.677,26.275-38.211c0.233-9.766-11.239-17.899-25.577-28.905
	c0-9.846,0-19.692,0-29.538c0,0,24.434-45.437,44.423-45.437s33.315-13.637,33.315-27.263
	c18.242-33.121-19.989-36.349-19.989-36.349c-42.305-0.805-90.228,1.172-131.495,0.379c-36.407-0.712-66.291-4.216-101.719-4.928
	c-15.545,0.769-31.096,1.516-46.641,2.274c-38.213,10.604-30.185,29.572-15.551,40.165c17.769,10.214,32.932,21.92,53.304,22.311
	c24.866,0.471,44.661,7.927,53.31,30.674c2.226,90.875,4.438,181.749,6.657,272.624c0.748,67.013,3.005,134.038,3.74,201.051
	c0.742,67.013-0.024,134.037,0.704,201.062c1.484,78.766,2.961,157.52,4.444,236.275c0,0-4.444,29.537-11.107,36.349
	c-6.657,6.813-4.438,65.887-4.438,65.887c24.597,19.577,19.367,16.843,2.226,43.163c-1.491,58.316-2.974,116.62-4.445,174.925
	c-5.927,10.615-11.849,21.219-17.776,31.812C1166.891,1513.458,1102.958,1547.695,1102.958,1577.219L1102.958,1577.219z"/>
<path fill="#0566B0" d="M27.323,1859.633c-32.932-6.193-39.111-20.749-27.413-29.343c7.021-5.147,25.791-4.962,34.227-8.558
	c12.346-5.319,24.955-12.281,32.391-20.691c12.704-14.372,4.997-47.643,20.152-74.745c14.572-114.346,18.933-265.847,4.376-316.81
	c-8.744-78.547,0.232-339.442,0.232-372.507c9.674-15.888,13.301-17.187,13.377-45.023c0.024-10.88,8.033-27.814-0.497-41.267
	c-12.377-12.914-8.637-63.394-9.605-91.863c-1.433-42.359,1.974-42.002,14.873-80.386c4.853-14.442,6.5-31.617,0-45.461
	c-10.51-22.379-25.71,3.469-24.698-41.462c2.483-109.038,6.927-218.742,3.791-327.747c0.678-9.708,18.379-11.488,21.849-20.668
	c4.4-11.673,5.865-26.113,0-37.2c-3.325-6.284-21.912,1.895-27.368-2.872c-33.328-29.101-75.204-47.38-94.515-86.2
	c-7.487-15.062,4.588-48.39,20.453-55.582c26.288-11.937,75.193,0.402,103.956-4.136c15.47-2.435,25.257-10.844,40.927-11.477
	c122.217-4.916,247.985-16.083,369.762-5.054c19.492,1.758,25.923,33.189,43.686,40.99c24.358,10.696,59.974,8.399,78.643,26.654
	c29.927,29.25,51.4,53.341,55.196,93.884c4.658,49.757,14.018,106.109,13.558,144.32c-0.389,32.007-10.912,60.89-26.526,88.416
	c-21.384,37.729-46.843,72.941-74.406,110.199c-15.891,21.484-44.177,41.416-50.833,65.911c-6.877,25.32,64.707,6.732,79.352,28.905
	c14.074,21.311-12.012,46.288-4.142,70.299c7.028,21.415,47.615,23.505,52.43,45.46c12.428,56.673-14.998,116.599-4.368,173.593
	c3.4,18.244,35.082,18.898,38.161,37.2c3.741,39.543,2.401,81.408,2.741,123.422c0.353,44.726,2.25,89.645,1.622,132.153
	c-1.201,16.027-24.157,25.401-26.207,41.325c-5.469,42.427,10.479,90.335,0.233,131.935c-10.805,43.807-49.344,74.746-64.38,117.426
	c-13.024,36.971-9.328,90.944-30.348,114.116c-34.761,9.971-78.02,32.328-105.402,50.963c-40.01,27.193-65.587,58.373-77.889,59.362
	c-15.626,12.707-48.684,4.216-68.063,10.822c-17.871,6.067-19.555,19.761-38.394,17.532c-14.879-1.747-10.24-13.04-21.85-22
	c-6.751-5.25-19.744-5.573-26.212,0c-39.218,28.847-9.963,21.287-54.499,17.531c-45.234-3.814-133.286,8.939-188.357-1.367H27.323z"
	/>
<path fill="#FFFFFF" d="M280.751,1693.737c10.196-17.91,20.392-35.821,30.587-53.743c-2.917-59.224-5.827-118.472-8.744-177.718
	c8.744-11.029,17.481-22.046,26.218-33.075c0-59.672,0-119.343,0-179.015c0-27.125-4.136-54.249-4.136-81.374
	c-30.669-23.184-16.003-22.839,8.731-49.596c0-26.171,6.909-47.288,6.909-73.469c-2.917-22.036-5.828-44.082-8.744-66.128
	c4.374-11.019,8.744-22.036,13.112-33.065c0-33.145,4.136-59.97,4.136-93.126c0-31.134,0.987-41.554,7.217-39.613
	c6.228,1.953,17.706,16.291,38.664,34.707c15.915,13.994,31.85,27.986,47.779,41.98c29.418,25.838,58.068,28.181,46.145,70.517
	c-11.145,39.613,20.881,50.596,10.931,89.898c-7.606,30.02-17.601,48.378-15.381,66.991c1.32,11.167,7.046,22.413,20.29,36.338
	c12.252,12.868,16.331,12.075,9.014,27.906c-11.352,24.539-21.031,38.842-22.163,53.583c-1.465,18.922,9.819,27.63,19.718,61.062
	c8.103,27.354,7.342,45.495-0.157,72.929c-8.876,32.536-17.745,65.072-26.628,97.619c-0.999,24.609-3.45,49.24-5.362,73.872
	c-2.898,37.533-8.366,38.498-36.922,65.324c-25.943,24.368-59.333,45.22-84.364,67.001c-27.67,9.65-49.192,10.547-76.864,20.197
	H280.751z"/>
<path fill="#FFFFFF" d="M347.595,649.412c22.164,0.597,32.077,2.608,38.947,0.012c6.877-2.585,10.717-9.777,20.743-27.55
	c12.95-22.977,32.127-51.688,48.031-53.848c26.796-3.641,40.777-7.283,40.777-7.283s14.03-2.425,9.228-34.006
	c-4.797-31.582-14.691-61.958-5.972-70.46c8.706-8.501,10.547-32.788,1.276-42.508c-9.259-9.719-18.072-19.438-3.105-32.799
	c14.967-13.362,25.289-35.731-10.479-32.077c-35.76,3.642-35.313-10.501-39.449-20.231c-4.136-9.708-43.147-7.492-63.545-8.56
	c-20.372,3.642-37.507,2.425-36.922,21.851c0.597,19.439-2.835,113.117-2.54,122.837
	C344.88,474.497,347.595,649.412,347.595,649.412L347.595,649.412z"/>
<path fill="#0566B0" d="M1478.86,1502.118c-1.59,8.249-22.334,8.307-20.743,16.578c2.231,11.557,3.061,29.606,15.796,31.111
	c36.948,4.378,87.594-9.064,124.234-2.872c14.463,2.447,15.256,24.987,28.519,30.801c10.9-0.161,27.67,0.183,41.494,0
	c10.635-5.055,7.776-22.897,18.153-28.423c12.773-6.824,30.191-9.41,44.078-4.756c7.473,2.515-2.723,20.472,5.185,21.345
	c64.631-2.24,122.368,4.228,183.517,0c12.213-1.838-0.233-17.818,9.774-24.447c11.371-7.548,39.571,5.617,41.487-7.112
	c9.932-65.807-5.569-139.288,1.195-205.416c2.168-21.163,24.395-33.72,29.367-54.503c1.653-6.916,10.73-7.042,11.447-13.855
	c2.521-23.736,2.061-52.515-4.513-75.882c-8.713-8.168-35.345-11.133-44.076-7.41c-9.844,6.617-0.893,30.135-7.505,39.521
	c-3.269,4.653-14.91-4.653-18.154,0c-3.181,4.584,0.937,12.109,2.395,18.049c0.874,3.573,0.799,6.572-2.395,8.019
	c-17.003,7.779-42.04-10.661-57.044,0c-14.729,10.467,1.804,30.721-10.649,43.416c-20.196,20.564-63.463,32.615-83.577,53.237
	c-23.918,24.529-21.781,49.562-49.262,70.735c-21.517,16.567-58.076,18.314-84.144,27.976
	c-30.215,11.224-44.648,31.904-76.033,39.98c-9.485,2.447-21.058-12.707-18.154-21.323c23.516-69.667,54.078-139.701,79.467-208.828
	c16.286-44.346,23.936-72.32,41.53-116.253c18.211-45.472,41.996-101.663,71.729-141.735c5.852-7.893,25.396-2.746,28.525-11.844
	c7.77-22.61-6.775-48.229,0-71.092c5.01-16.934,24.508-33.179,40.652-42.656c10.899-6.412,28.299,2.515,33.113-8.479
	c11.24-25.678,0.735-52.871,7.814-79.754c4.776-18.118,18.386-29.216,27.054-46.093c11.491-22.391,10.655-41.819,23.333-63.67
	c10.328-17.784,32.052-42.669,38.306-61.97c8.593-26.516,1.553-39.521,4.344-67.059c0.754-7.41,12.634-11.511,12.967-18.956
	c4.023-89.175,9.19-178.659,3.464-267.765c-0.466-7.26-18.311-6.95-18.154-14.222c0.623-27.229,4.237-51.285,2.597-75.826
	c-0.314-4.791,1.496-8.72-3.746-8.926c-81.202-3.114-161.346-1.425-242.598-0.552c-66.555,0.7-133.273-4.17-199.664,0
	c-10.052,0.632-19.053,2.206-25.936,8.915c-6.6,6.444-9.882,20.185-9.492,28.997c1.748,39.601-0.874,82.718,0,130.328
	c0.151,8.823,19.179,3.549,22.459,11.856c9.14,23.126,9.844,48.941,7.782,73.458c-0.659,7.881-11.138,18.485-10.937,26.366
	c4.168,27.412,8.052,46.794,13.527,73.16c3.149,10.202,12.754,18.163,15.558,28.434c3.356,12.281-8.901,37.096,4.91,37.912
	c4.588,0.276,20.592,2.712,28.802,0c10.547-3.493-3.879-21.162,0-30.8c2.746-6.836,16.89-7.032,18.153-14.223
	c6.851-39.015-5.061-84.741,1.716-123.778c2.062-11.891,9.524-24.459,20.743-30.801c9.543-5.4,26.81,8.1,33.712,0
	c9.561-11.236,0.151-24.183,6.06-37.361c8.467-18.852,22.233-36.224,38.897-49.756c15.305-12.443,30.625-27.32,50.984-29.263
	c45.53-4.319,99.996-0.436,161.649-2.86c5.783-0.241,7.335,7.881,7.782,13.154c2.181,25.999,7.355,61.304,0,78.203
	c-10.68,24.539-34.837,51.929-59.358,77.411c-16.777,17.417-33.736,32.834-46.684,50.309c-15.514,20.931,7.669,49.481-0.277,73.711
	c-8.128,24.769-30.343,51.101-47.553,71.642c-14.118,16.843-34.874,25.471-48.106,42.899c-16.526,21.771-26.149,43.209-36.59,67.92
	c-8.674,20.542-14.269,42.233-18.146,63.98c-3.068,17.164,5.914,36.58-2.596,52.136c-6.23,11.384-20.298,9.282-29.362,18.956
	c-12.577,13.407-19.945,30.606-25.928,47.39c-7.097,19.886-7.682,31.662-18.751,49.964c-12.427,20.53-37.369,40.348-48.671,61.406
	c-12.333,22.966-13.741,50.883-19.908,75.836c-5.959,24.126-10.944,46.862-16.394,71.092c-6.681,29.652-13.652,59.775-12.967,90.047
	c0.207,9.202,10.863,15.543,15.558,23.689c3.96,6.882,13.063,13.948,10.372,21.323c-3.672,10.088-24.288,10.811-25.93,21.335
	c-1.697,10.857,1.326,20.886,10.058,28.446c7.586,6.536,23.076,3.688,28.525,11.833c5.859,8.777,4.802,21.53,0,30.801
	c-4.004,7.743-18.041,5.859-19.87,14.235C1476.313,1443.595,1485.467,1467.883,1478.86,1502.118L1478.86,1502.118z"/>
<path fill="#0566B0" d="M858.128,1858.529c-32.932,10.558-71.358,0.024-106.269,0.701c-10.755,0.219-28.268,7.927-38.601,5.159
	c-11.284-3.01-29.066-23.46-22.014-32.077c27.552-33.569,81.868-37.762,107.024-72.838c14.797-20.633,0.937-48.424,7.292-72.401
	c1.955-7.364,16.074-6.686,20.254-13.223c3.393-5.32,4.387-13.809,0-18.497c-10.032-10.707-16.388,11.742-20.341-20.3
	c-3.545-28.664-4.287-57.764-1.377-86.394c1.829-18.244,16.331-14.384,19.072-24c5.111-17.91-5.512-31.179-0.257-49.056
	c2.364-8.03,18.637-6.008,23.144-13.223c4.3-6.87,4.81-17.176,0-23.793c-9.856-13.51-36.634-13.291-39.619-29.296
	c-5.488-29.433-2.546-61.027-1.98-90.231c0.604-31.1-1.735-62.303,1.106-93.989c0.521-5.882,15.086-5.629,17.35-11.155
	c4.4-10.718,1.616-23,0-34.362c-1.289-9.11,1.773-27.745,1.012-36.913c-1.175-14.074-7.795-19.3-0.635-31.812
	c4.991-8.72,21.271-3.469,22.767-13.213c7.915-51.479-8.975-104.27-2.891-155.957c1.031-8.754,16.118-7.365,18.656-15.865
	c4.08-13.707,5.344-29.457-1.3-42.29c-3.137-6.054-17.921-6.078-18.494-12.763c-6.493-75.538,4.81-146.951-1.753-222.488
	c-0.615-7.078-19.631,2.849-19.982-27.849c-0.39-32.168-3.634-62.165-3.162-85.809c0.371-18.151,43.209-18.634,42.755-36.786
	c-0.685-27.653,4.08-58.856-2.891-87.222c-2.237-9.122-15.261-7.616-19.611-16.084c-4.099-7.961-0.233-15.899,3.513-24.023
	c4.502-9.764,16.734-15.934,19.626-26.205c5.292-18.761,4.758-39.256,0-58.155c-1.565-6.181-13.239-12.213-16.482-17.831
	c-6.009-10.374-3.294-19.542-11.315-28.71c-5.551-6.33-21.925-2.447-28.671-7.709c-17.368-13.556-27.381-28.618-41.946-40.968
	c-13.69-11.593-32.145-20.323-42.694-37.395c-6.782-10.961,1.112-29.928,12.069-37.579c8.417-5.882,21.593-4.55,30.939,0
	c7.601,3.699,7.45,18.45,15.973,19.53c37.282,4.744,74.286-10.248,111.046-2.872c16.03,3.228,16.885,21.724,31.819,27.917
	c9.995,4.148,28.004-3.872,37.1,1.747c13.345,8.236,24.672,25.769,35.194,35.568c13.521,12.591,25.182,18.198,32.09,36.016
	c8.719,22.518,4.903,45.61,4.513,69.024c-0.333,20.657,3.344,41.577,1.269,62.567c-0.698,7.054-15.532,3.733-17.606,10.569
	c-3.641,11.994-1.038,25.436,5.783,36.2c4.965,7.847,18.405,3.849,21.635,12.408c7.537,20.002,8.499,44.53,2.893,65.048
	c-2.088,7.652-18.23,2.723-18.739,10.581c-6.5,99.389-8.122,199.638,2.891,298.693c1.867,16.831,30.996,22.828,32.951,39.647
	c10.918,93.748,0.979,188.643-3.269,282.826c-0.597,13.396-7.865,30.238-13.835,40.233c-6.683,11.178-2.527,22.346-2.282,34.673
	c0.327,15.855-1.747,33.145,0.892,49.333c1.509,9.248,22.09,18.049,21.385,27.365c-1.949,25.7,2.049,37.844,3.766,63.177
	c0.829,12.201-23.472,19.817-31.185,29.801c-5.545,7.168-8.914,21.082-4.4,28.847c4.263,7.319,11.918,3.596,14.339,11.593
	c3.432,11.316,3.714,20.875-2.514,31.157c-4.023,6.606-18.845,5.745-20.247,13.201c-3.942,20.921,9.058,42.439,5.783,63.451
	c-0.981,6.284-16.33,4.286-17.355,10.57c-5.142,31.364,5.82,63.877,0,95.149c-2.194,11.81-22.214,17.129-23.139,29.077
	c-0.521,6.687,16.79,2.022,20.247,7.928c5.456,9.374-8.242,28.756,2.891,31.72c37.011,9.903,82.81,7.341,120.105-1.598
	c21.12-5.077,30.058-32.145,51.808-34.018c26.205-2.263,45.541,13.546,71.439,17.784c34.144,5.619,71.502,6.629,105.005-1.596
	c19.77-4.872,31.261-24.046,51.563-26.527c87.901-10.8,169.48-4.159,258.174-4.583c83.866-0.426,191.16-4.286,253.421,1.929
	c35.509,1.08-2.998,115.874,9.807,176.511c2.785,13.201,15.13,20.588,22.54,32.8c11.831,19.485,16.412,29.389-14.294,29.273
	c-57.767-0.265-116.226,3.802-178.903,1.391c-12.313-0.472-11.716-22.173-23.139-26.447c-12.514-4.687-27.356,5.549-40.499,2.654
	c-19.694-4.354-41.895-21.598-61.999-23.781c-53.605-5.882-107.62,6.4-161.094-0.356c-12.138-1.527-13.811-22.989-26.03-23.816
	c-125.002-8.351-244.773,3.654-369.899-2.585c-26.803-1.345-29.242-9.88-46.252-14.395c-24.075-6.354-67.12-8.904-89.794,0.815
	C902.017,1810.197,902.148,1844.387,858.128,1858.529L858.128,1858.529z"/>
</svg>
