<?xml version="1.0" encoding="utf-8"?>
<!-- Generator: Adobe Illustrator 24.0.2, SVG Export Plug-In . SVG Version: 6.00 Build 0)  -->
<svg version="1.1" id="Layer_1" xmlns="http://www.w3.org/2000/svg" xmlns:xlink="http://www.w3.org/1999/xlink" x="0px" y="0px"
	 viewBox="0 0 2000 2000" style="enable-background:new 0 0 2000 2000;" xml:space="preserve">
<style type="text/css">
	.st0{fill:#03316C;}
</style>
<path className="st0" d="M1337.6,1608.6h-123.2l-147.5-135.3v-69.4l152.7-145.8v-230.8l199.6-130.1l227.3,171.8L1337.6,1608.6z
	 M827.4,1244.2l22.6-216.9l-74.6-194.3h440.8l-72.9,194.3l20.8,216.9H994H827.4z M928.1,1473.2l-147.5,137.1H655.6L345,1068.9
	l229.1-170.1l201.3,128.4v230.8l152.7,145.8C928.1,1403.8,928.1,1473.2,928.1,1473.2z M653.9,432.1h682l81.6,347H574.1L653.9,432.1z
	 M995.7,0L129.9,499.7v999.5L995.7,1999l865.9-499.7V499.7L995.7,0z"/>
</svg>
