<?xml version="1.0" encoding="utf-8"?>
<!-- Generator: Adobe Illustrator 24.0.2, SVG Export Plug-In . SVG Version: 6.00 Build 0)  -->
<svg version="1.1" id="Layer_1" xmlns="http://www.w3.org/2000/svg" xmlns:xlink="http://www.w3.org/1999/xlink" x="0px" y="0px"
	 viewBox="0 0 2000 2000" style="enable-background:new 0 0 2000 2000;" xml:space="preserve">
<style type="text/css">
	.st0{fill:#FFFFFF;}
	.st1{fill:#69B3E7;}
	.st2{fill:#0067B9;}
	.st3{fill:#333E48;}
	.st4{fill:#FFC107;}
</style>
<g>
	<path className="st0" d="M1344.9,1064.4c-30.4,161.2-171.8,283-341.8,283c-192.2,0-347.9-155.8-347.9-347.9s155.8-347.9,347.9-347.9
		c170,0,311.4,121.9,341.8,283h351.1c-32.7-353.9-330.4-631-692.9-631c-384.4,0-695.9,311.6-695.9,695.9
		c0,384.4,311.6,695.9,695.9,695.9c362.4,0,660.1-277.1,692.9-631H1344.9z"/>
</g>
<path id="path6" className="st1" d="M1652.8,565.5c240.8,361.3,143.1,849.3-218.2,1090.1c-361.1,240.7-849,143.2-1089.9-217.9
	l-174.2,116c304.9,457.4,922.8,581,1380.2,276.1s581-922.8,276.1-1380.2L1652.8,565.5z"/>
<path id="path8" className="st2" d="M210.3,998c0-434.1,351.9-786.1,786.1-786.1c264.4,0,511,132.9,656.4,353.6l174.1-116
	C1522.1-7.9,904.2-131.7,446.7,173.1s-581.2,922.7-276.4,1380.2c0.1,0.1,0.2,0.2,0.2,0.4l174.2-116
	C256.9,1307.9,210.1,1154.7,210.3,998z"/>
<path id="path10" className="st3" d="M523.2,1313.4h913c18.4,0,33.3-14.9,33.3-33.3l0,0V682.8L523.2,1313.4z"/>
<path id="path12" className="st4" d="M996.4,998L523.2,682.8v630.9L996.4,998z"/>
</svg>
