<svg xmlns="http://www.w3.org/2000/svg" xmlns:xlink="http://www.w3.org/1999/xlink" width="478.344" height="510.781" viewBox="0 0 478.344 510.781">
  <defs>
    <style>
      .cls-1, .cls-2 {
        fill-rule: evenodd;
      }

      .cls-1 {
        filter: url(#filter);
      }

      .cls-2 {
        filter: url(#filter-2);
      }
    </style>
    <filter id="filter" x="17.875" y="0.594" width="477.281" height="262" filterUnits="userSpaceOnUse">
      <feFlood result="flood" flood-color="#ff8201"/>
      <feComposite result="composite" operator="in" in2="SourceGraphic"/>
      <feBlend result="blend" in2="SourceGraphic"/>
    </filter>
    <filter id="filter-2" x="16.813" y="238.594" width="477.125" height="272.781" filterUnits="userSpaceOnUse">
      <feFlood result="flood" flood-color="#6d7276"/>
      <feComposite result="composite" operator="in" in2="SourceGraphic"/>
      <feBlend result="blend" in2="SourceGraphic"/>
    </filter>
  </defs>
  <path className="cls-1" d="M17.954,227.1S18.9-1.282,262.844.6C468.721,2.189,498.349,190.518,493.938,216.748c-2.812,16.724,3.887,68.521-49.438,34.491-40.876-26.085-123.2-75.362-177.057-77.031-66.945-2.074-153.189,51.849-197.752,77.031C13.359,283.073,17.954,227.1,17.954,227.1ZM112.231,83.38v27.593H84.638l1.15,31.043,26.444,1.15v28.743h33.342l1.15-27.594,25.293-1.149V110.973H145.573V84.53ZM383.565,73.033a18.4,18.4,0,1,1-18.395,18.4A18.4,18.4,0,0,1,383.565,73.033Zm-39.09,37.94a18.4,18.4,0,1,1-18.4,18.4A18.4,18.4,0,0,1,344.475,110.973Zm80.48,1.15a18.4,18.4,0,1,1-18.395,18.4A18.4,18.4,0,0,1,424.955,112.123Zm-41.39,37.941a18.4,18.4,0,1,1-18.395,18.4A18.4,18.4,0,0,1,383.565,150.064Z" transform="translate(-16.813 -0.594)"/>
  <path className="cls-2" d="M16.8,268.485s-0.3,135.689,91.978,198.9c98.423,67.426,245.211,54.821,298.927-20.695,12.086,72.86,85.08,52.887,85.08,52.887l1.149-231.094s-15.926,9.55-34.491,4.6c-23.875-6.366-51.738-27.593-51.738-27.593H278.941s-11.889,47.771,20.7,70.133c14.244,9.775,42.93,9.288,65.534,9.2,17.147-.069,31.042,1.149,31.042,1.149s-17.093,123.8-164.41,96.577C102.839,398.714,126.028,238.593,126.028,238.593a395.27,395.27,0,0,0-36.791,16.1c-14.329,7.142-30.214,18.156-43.689,21.844C29.061,281.045,16.8,268.485,16.8,268.485Z" transform="translate(-16.813 -0.594)"/>
</svg>
