<?xml version="1.0" encoding="utf-8"?>
<!-- Generator: Adobe Illustrator 24.0.2, SVG Export Plug-In . SVG Version: 6.00 Build 0)  -->
<svg version="1.1" id="Layer_1" xmlns="http://www.w3.org/2000/svg" xmlns:xlink="http://www.w3.org/1999/xlink" x="0px" y="0px"
	 viewBox="0 0 1125 1125" style="enable-background:new 0 0 1125 1125;" xml:space="preserve">
<style type="text/css">
	.st0{fill:#262729;}
	.st1{fill:#CF0A2C;}
</style>
<g>
	<path className="st0" d="M59.9,929.7H22v183.5h37.9v-75.7h81.6v75.7h37.9V929.7h-37.9v72.8H59.9V929.7z M351.1,1034.5
		c0,29.1-14.6,46.6-40.8,46.6s-40.8-17.5-40.8-46.6V932.6h-37.9v104.9c0,52.4,29.1,81.6,78.6,81.6s78.6-29.1,78.6-81.6V935.5h-37.9
		V1034.5z M706.5,929.7l-40.8,125.2l-40.8-125.2h-37.9l61.2,183.5h32L721,993.8l40.8,119.4h32l64.1-183.5h-37.9l-40.8,125.2
		l-40.8-125.2L706.5,929.7z M991.9,999.6h-67v-35h96.1v-35H887v183.5h136.9v-35h-99v-43.7h67V999.6z M1070.5,929.7h37.9v183.5h-37.9
		V929.7z M543.4,1075.3l17.5,37.9h37.9l-78.6-180.6h-32l-81.6,183.5h37.9l14.6-35v-2.9h84.5L543.4,1075.3z M502.6,976.3l26.2,61.2
		l2.9,2.9h-55.3l2.9-2.9L502.6,976.3z"/>
	<path className="st1" d="M488,644.3c0,0,2.9-2.9,0-2.9C359.9,364.6,185.1,152,185.1,152S89,242.3,97.7,332.6
		c2.9,67,55.3,107.8,55.3,107.8c81.6,81.6,282.5,180.6,329.1,203.9C485.1,644.3,485.1,647.2,488,644.3 M456,714.2
		c0-2.9-2.9-2.9-2.9-2.9l-334.9,11.7c35,64.1,96.1,113.6,160.2,99C322,810.3,421,743.3,453.1,720L456,714.2 M461.8,682.1
		c2.9-2.9,0-5.8,0-5.8c-145.6-99-431.1-250.5-431.1-250.5c-26.2,78.6,8.7,142.7,8.7,142.7c35,75.7,104.9,99,104.9,99
		c32,11.7,64.1,14.6,64.1,14.6h250.5C458.9,685,461.8,682.1,461.8,682.1 M485.1,9.3c-14.6,0-52.4,8.7-52.4,8.7
		C345.3,41.3,322,120,322,120c-17.5,49.5,0,104.9,0,104.9c29.1,131.1,174.8,343.7,206.8,390.3c2.9,2.9,2.9,0,2.9,0
		c2.9,0,2.9-2.9,2.9-2.9C581.2,134.5,485.1,9.3,485.1,9.3 M592.9,618c2.9,0,5.8-2.9,5.8-2.9c32-46.6,177.7-259.2,206.8-390.3
		c0,0,14.6-64.1,0-104.9c0,0-20.4-81.6-110.7-101.9L642.4,6.4c0,0-99,128.2-49.5,605.8L592.9,618 M674.4,711.2c0,0-2.9,0-2.9,2.9
		v5.8c32,23.3,128.2,90.3,174.8,104.9c0,0,87.4,29.1,160.2-99L674.4,711.2z M1096.8,428.7c0,0-282.5,151.5-431.1,250.5
		c0,0-2.9,2.9-2.9,5.8c0,0,0,2.9,2.9,2.9H922c0,0,26.2,0,58.3-14.6c0,0,69.9-23.3,107.8-101.9C1088,568.5,1120.1,504.4,1096.8,428.7
		 M639.5,644.3c0,0,2.9,2.9,5.8,0c46.6-23.3,247.6-125.2,329.1-203.9c0,0,52.4-40.8,55.3-107.8c5.8-93.2-87.4-180.6-87.4-180.6
		S767.6,361.7,639.5,638.4C639.5,638.4,636.6,641.3,639.5,644.3"/>
</g>
</svg>
