<?xml version="1.0" encoding="utf-8"?>
<!-- Generator: Adobe Illustrator 24.0.2, SVG Export Plug-In . SVG Version: 6.00 Build 0)  -->
<svg version="1.1" id="Layer_1" xmlns="http://www.w3.org/2000/svg" xmlns:xlink="http://www.w3.org/1999/xlink" x="0px" y="0px"
	 viewBox="0 0 2000 2000" style="enable-background:new 0 0 2000 2000;" xml:space="preserve">
<style type="text/css">
	.st0{fill-rule:evenodd;clip-rule:evenodd;fill:#FF5100;}
</style>
<g>
	<path className="st0" d="M1841.8,606.9V422 M1912.6,1303.8h83.7v191.6l-83.7-3.4 M1453.2,1492v-190.3h153.1V904.4
		c0-66.1-16.2-115.4-46.5-148.5c-29.7-33.1-76.3-49.2-137.6-49.2c-66.8,0-123.5,23.6-167.3,70.2c-43.9,46.5-66.8,106.6-66.8,178.8
		v346.1h147.1V1492H733.3v-190.3h147V904.4c0-66.1-14.8-115.4-46.6-148.5c-31-33.1-78.3-49.2-141.6-49.2
		c-69.4,0-126.2,23.6-171.4,70.2c-44.5,46.5-66.7,106.6-66.7,178.8v346.1H620V1492H146.4V608.9H0V422h446.6v264.5
		c49.9-61.4,103.9-105.9,163.9-134.9c58.7-28.3,124.9-43.2,198.3-43.2c84.3,0,157.9,15.5,221.3,45.8c63.4,31,110,74.9,140.3,132.2
		c41.8-62.7,90.4-107.9,147.1-136.3c56.7-27.7,126.8-41.8,209.8-41.8c135.6,0,234.1,29,294.2,86.3c60.8,58,91,151.8,91,281.3v616"/>
</g>
</svg>
