<?xml version="1.0" encoding="utf-8"?>
<!-- Generator: Adobe Illustrator 24.0.2, SVG Export Plug-In . SVG Version: 6.00 Build 0)  -->
<svg version="1.1" id="Layer_1" xmlns="http://www.w3.org/2000/svg" xmlns:xlink="http://www.w3.org/1999/xlink" x="0px" y="0px"
	 viewBox="0 0 2500 2500" style="enable-background:new 0 0 2500 2500;" xml:space="preserve">
<style type="text/css">
	.st0{fill:#FF8736;}
	.st1{fill:#FFFFFF;}
</style>
<path className="st0" d="M2500,1250c0,1250,0,1250-1250,1250S0,2500,0,1250S0,0,1250,0S2500,0,2500,1250z"/>
<path className="st1" d="M1445.8,1675c98.6-22.5,193.6-61.5,281-116.5c66.2-41.7,86.2-129.1,44.4-195.6
	c-41.7-66.4-129.1-86.4-195.6-44.7c-198.2,124.8-453.4,124.5-651.6,0c-66.4-41.7-153.8-21.7-195.6,44.7
	c-41.7,66.2-21.7,153.8,44.4,195.6c87.4,54.9,182.4,94,281,116.5l-270.3,270.5c-55.4,55.4-55.4,145,0,200.4
	c27.8,27.6,64,41.5,100.1,41.5c36.4,0,72.5-13.9,100.3-41.5l265.9-265.9l265.9,265.9c55.4,55.4,145,55.4,200.4,0
	c55.4-55.4,55.4-145.3,0-200.4L1445.8,1675 M1250,596.2c110.6,0,200.4,89.8,200.4,200.4c0,110.4-89.8,200.2-200.4,200.2
	c-110.3,0-200.4-89.8-200.4-200.2C1049.6,686,1139.7,596.2,1250,596.2L1250,596.2z M1250,1280.3c266.8,0,483.9-217,483.9-483.6
	c0-267.1-217-484.1-483.9-484.1c-266.8,0-483.9,217-483.9,483.9S983.2,1280.3,1250,1280.3z"/>
</svg>
