<?xml version="1.0" encoding="utf-8"?>
<!-- Generator: Adobe Illustrator 24.0.2, SVG Export Plug-In . SVG Version: 6.00 Build 0)  -->
<svg version="1.1" id="Layer_1" xmlns="http://www.w3.org/2000/svg" xmlns:xlink="http://www.w3.org/1999/xlink" x="0px" y="0px"
	 viewBox="0 0 2000 2000" style="enable-background:new 0 0 2000 2000;" xml:space="preserve">
<style type="text/css">
	.st0{fill:#FFFFFF;}
	.st1{fill:#333366;}
</style>
<g>
	<path className="st0" d="M1344.9,1064.4c-30.4,161.2-171.8,283-341.8,283c-192.2,0-347.9-155.8-347.9-347.9s155.8-347.9,347.9-347.9
		c170,0,311.4,121.9,341.8,283h351.1c-32.7-353.9-330.4-631-692.9-631c-384.4,0-695.9,311.6-695.9,695.9
		c0,384.4,311.6,695.9,695.9,695.9c362.4,0,660.1-277.1,692.9-631H1344.9z"/>
</g>
<path className="st1" d="M988.6,6.1c0,0-586.5-19.3-707.5,631.4v443.1c0,0,5,47.4,138.4,143.8c133.4,96.3,478.7,367.6,569.1,367.6
	s435.7-271.2,569.1-367.6c133.4-96.3,138.4-143.8,138.4-143.8V637.4C1575.1-13.2,988.6,6.1,988.6,6.1L988.6,6.1z M1390.2,879H586.9
	V637.4c81.5-323.1,401.6-327.5,401.6-327.5s320.1,4.4,401.6,327.5V879z"/>
<path className="st1" d="M988.6,1691.7c0,0-90.9-8.9-162-58.3s-545.5-388.3-545.5-388.3v670.9c0,0,4,78.1,90,78.1h1235
	c86,0,90-78.1,90-78.1v-670.9c0,0-474.3,338.9-545.5,388.3C1079.5,1682.8,988.6,1691.7,988.6,1691.7z"/>
</svg>
