<?xml version="1.0" encoding="utf-8"?>
<!-- Generator: Adobe Illustrator 24.0.2, SVG Export Plug-In . SVG Version: 6.00 Build 0)  -->
<svg version="1.1" id="Layer_1" xmlns="http://www.w3.org/2000/svg" xmlns:xlink="http://www.w3.org/1999/xlink" x="0px" y="0px"
	 viewBox="0 0 600 581.1" style="enable-background:new 0 0 600 581.1;" xml:space="preserve">
<style type="text/css">
	.st0{display:none;fill:#CCCCCC;}
	.st1{display:none;}
	.st2{fill:#FAAB07;}
	.st3{fill:#FFFFFF;}
	.st4{fill:#EB1923;}
</style>
<path className="st0" d="M499,585.4H120.5c-37.4,0-67.8-30.4-67.8-67.8V139.2c0-37.4,30.4-67.8,67.8-67.8H499
	c37.4,0,67.8,30.4,67.8,67.8v378.4C566.7,555.1,536.4,585.4,499,585.4z"/>
<g className="st1">
</g>
<g transform="matrix(.35277779 0 0 .35277779 -44.0002378 -32.999882)">
	<path className="st2" d="M981.5,1712.5c-142.2,0-272.6-47.6-356.7-118.6c-42.7,12.8-97.2,33.3-131.7,58.7
		c-29.5,21.8-25.8,43.9-20.5,52.9c23.3,39.4,400.1,25.1,508.8,12.9V1712.5z"/>
	<path className="st2" d="M981.5,1712.5c142.2,0,272.6-47.6,356.7-118.6c42.7,12.8,97.2,33.3,131.7,58.7c29.5,21.8,25.8,43.9,20.5,52.9
		c-23.3,39.4-400.1,25.1-508.8,12.9V1712.5z"/>
	<path d="M982.3,860.5c234.8-1.6,422.9-47,486.6-64.5c15.2-4.2,23.3-11.6,23.3-11.6c0.1-2.1,1-38.2,1-56.8
		c0-313.4-148-628.3-511.8-628.4c-363.8,0-511.8,315-511.8,628.4c0,18.6,0.9,54.7,1,56.8c0,0,6.6,7,18.7,10.3
		c58.9,16.4,250.5,64.1,491.2,65.7H982.3z"/>
	<path d="M1620.3,1121.6c-14.6-46.8-34.4-101.4-54.5-153.9c0,0-11.6-1.4-17.4,0.3c-180.5,52.4-399.3,85.9-566,83.8h-1.7
		c-165.8,2-383.1-31-563-83c-6.9-2-20.4-1.1-20.4-1.1c-20.1,52.5-40,107.1-54.5,153.9c-69.4,223.3-46.9,315.7-29.8,317.8
		c36.7,4.4,143-168.1,143-168.1c0,175.3,158.3,444.6,520.8,447c1.6,0,8,0,9.6,0c362.5-2.5,520.8-271.7,520.8-447
		c0,0,106.3,172.6,143,168.1C1667.2,1437.3,1689.6,1344.9,1620.3,1121.6"/>
	<path className="st3" d="M852,562.2c-49.4,2.2-91.5-54-94.2-125.5c-2.7-71.5,35.1-131.3,84.5-133.5c49.3-2.2,91.5,54,94.1,125.5
		C939.1,500.3,901.3,560,852,562.2"/>
	<path className="st3" d="M1205.1,436.8c-2.6,71.5-44.8,127.7-94.2,125.5c-49.3-2.2-87.2-62-84.4-133.5c2.7-71.5,44.8-127.7,94.1-125.5
		C1170,305.5,1207.8,365.2,1205.1,436.8"/>
	<path className="st2" d="M1292.8,663.2c-13.2-29.2-146-61.8-310.5-61.8h-1.8c-164.5,0-297.3,32.6-310.5,61.8c-0.6,1.3-1,2.7-1,4.2
		c0,2.1,0.7,4,1.8,5.6c11.1,16.2,158.6,96.3,309.6,96.3h1.8c151,0,298.5-80.1,309.6-96.3c1.1-1.6,1.8-3.5,1.8-5.6
		C1293.8,665.9,1293.4,664.5,1292.8,663.2"/>
	<path d="M912.7,437.8c2.3,28.2-13.2,53.3-34.6,56.1c-21.4,2.8-40.5-17.9-42.7-46.2c-2.2-28.3,13.2-53.3,34.5-56.1
		C891.3,388.9,910.4,409.6,912.7,437.8"/>
	<path d="M1048.3,447.3c4.4-7.8,34.1-48.9,95.6-33.9c16.2,3.9,23.6,9.7,25.2,12c2.3,3.4,3,8.1,0.6,14.6
		c-4.7,12.8-14.3,12.4-19.7,9.9c-3.5-1.6-46.3-30.2-85.8,12.4c-2.7,2.9-7.6,3.9-12.2,0.5C1047.4,459.2,1045.5,452.2,1048.3,447.3"/>
	<path className="st3" d="M982.3,1041.5h-1.7c-113.4,1.4-250.8-13.6-384-39.9c-11.4,66-18.3,148.9-12.4,247.9
		c14.9,250,163.4,407.2,392.6,409.5h9.3c229.2-2.3,377.7-159.4,392.6-409.5c5.9-98.9-1-181.9-12.4-247.9
		C1233.2,1027.9,1095.7,1042.9,982.3,1041.5"/>
	<path className="st4" d="M659.4,1020.6v246c0,0,112.7,22.7,225.6,7v-226.9C813.5,1042.6,736.3,1033.6,659.4,1020.6"/>
	<path className="st4" d="M1492.3,784.4c0,0-219.2,69.2-510,71.2h-1.7c-290.3-2-509.2-70.9-510-71.2l-73.4,183.3
		c183.7,55.4,411.3,91.1,583.4,89h1.7c172.1,2.1,399.7-33.6,583.4-89L1492.3,784.4z"/>
</g>
</svg>
