<?xml version="1.0" encoding="utf-8"?>
<!-- Generator: Adobe Illustrator 24.0.2, SVG Export Plug-In . SVG Version: 6.00 Build 0)  -->
<svg version="1.1"
	 id="svg16" inkscape:export-filename="G:\Users\suitedoalex\sites\skrill-logo-0.png" inkscape:export-xdpi="561.73712" inkscape:export-ydpi="561.73712" inkscape:version="0.92.4 (5da689c313, 2019-01-14)" sodipodi:docname="skrill-logo.svg" xmlns:cc="http://creativecommons.org/ns#" xmlns:dc="http://purl.org/dc/elements/1.1/" xmlns:inkscape="http://www.inkscape.org/namespaces/inkscape" xmlns:rdf="http://www.w3.org/1999/02/22-rdf-syntax-ns#" xmlns:sodipodi="http://sodipodi.sourceforge.net/DTD/sodipodi-0.dtd" xmlns:svg="http://www.w3.org/2000/svg"
	 xmlns="http://www.w3.org/2000/svg" xmlns:xlink="http://www.w3.org/1999/xlink" x="0px" y="0px" viewBox="0 0 700 700"
	 style="enable-background:new 0 0 700 700;" xml:space="preserve">
<style type="text/css">
	.st0{fill-rule:evenodd;clip-rule:evenodd;fill:url(#Fill-1_2_);}
</style>
<sodipodi:namedview  bordercolor="#666666" borderopacity="1" gridtolerance="10" guidetolerance="10" id="namedview18" inkscape:current-layer="svg16" inkscape:cx="188.70317" inkscape:cy="192.59816" inkscape:pageopacity="0" inkscape:pageshadow="2" inkscape:window-height="837" inkscape:window-maximized="1" inkscape:window-width="1600" inkscape:window-x="-8" inkscape:window-y="-8" inkscape:zoom="0.73568282" objecttolerance="10" pagecolor="#ffffff" showgrid="false">
	</sodipodi:namedview>
<title  id="title2">skrill-logo-white</title>
<desc  id="desc4">Created with Sketch.</desc>
<g id="Page-1_1_" transform="matrix(2.4026064,0,0,2.4026064,77.578071,255.64484)" inkscape:export-filename="G:\Users\suitedoalex\sites\skrill-logo-4.png" inkscape:export-xdpi="70.478905" inkscape:export-ydpi="70.478905">
	<g id="skrill-logo-web-1-rgb_1_">
		
			<linearGradient id="Fill-1_2_" gradientUnits="userSpaceOnUse" x1="-251.4826" y1="314.0921" x2="-62.7907" y2="-47.2554" gradientTransform="matrix(4.111 0 0 -1.4042 973.1011 370.0357)">
			<stop  offset="0" style="stop-color:#6B195F"/>
			<stop  offset="1" style="stop-color:#4C255B"/>
		</linearGradient>
		<path id="Fill-1_1_" inkscape:connector-curvature="0" className="st0" d="M116.4,1.2c-9.5-0.6-31.5-2-31.5-21.8
			c0-23.9,31.6-23.9,43.5-23.9c20.9,0,47.9,6.2,67.2,11.9c0,0,10.8,3.8,19.9,7.7l0.9,0.2V-90l-1.2-0.3c-22.8-8-49.3-15.6-98.4-15.6
			C32.2-106,2.2-56.7,2.2-14.4c0,24.4,10.4,81.7,107.4,88.3c8.2,0.5,30,1.8,30,22.2c0,16.9-17.9,26.8-47.9,26.8
			c-32.9,0-64.9-8.4-84.3-16.4v67.4c29,7.6,61.8,11.4,100.1,11.4c82.8,0,119.9-46.7,119.9-92.9C227.5,40,186,5.9,116.4,1.2z"/>
	</g>
</g>
</svg>
