<?xml version="1.0" encoding="utf-8"?>
<!-- Generator: Adobe Illustrator 24.0.2, SVG Export Plug-In . SVG Version: 6.00 Build 0)  -->
<svg version="1.1"
	 id="svg16" inkscape:export-filename="G:\Users\suitedoalex\sites\skrill-logo-0.png" inkscape:export-xdpi="561.73712" inkscape:export-ydpi="561.73712" inkscape:version="0.92.4 (5da689c313, 2019-01-14)" sodipodi:docname="skrill-logo.svg" xmlns:cc="http://creativecommons.org/ns#" xmlns:dc="http://purl.org/dc/elements/1.1/" xmlns:inkscape="http://www.inkscape.org/namespaces/inkscape" xmlns:rdf="http://www.w3.org/1999/02/22-rdf-syntax-ns#" xmlns:sodipodi="http://sodipodi.sourceforge.net/DTD/sodipodi-0.dtd" xmlns:svg="http://www.w3.org/2000/svg"
	 xmlns="http://www.w3.org/2000/svg" xmlns:xlink="http://www.w3.org/1999/xlink" x="0px" y="0px" viewBox="0 0 700 700"
	 style="enable-background:new 0 0 700 700;" xml:space="preserve">
<style type="text/css">
	.st0{fill:#FF4200;}
</style>
<sodipodi:namedview  bordercolor="#666666" borderopacity="1" gridtolerance="10" guidetolerance="10" id="namedview18" inkscape:current-layer="svg16" inkscape:cx="188.70317" inkscape:cy="192.59816" inkscape:pageopacity="0" inkscape:pageshadow="2" inkscape:window-height="837" inkscape:window-maximized="1" inkscape:window-width="1600" inkscape:window-x="-8" inkscape:window-y="-8" inkscape:zoom="0.73568282" objecttolerance="10" pagecolor="#ffffff" showgrid="false">
	</sodipodi:namedview>
<title  id="title2">skrill-logo-white</title>
<desc  id="desc4">Created with Sketch.</desc>
<g>
	<path className="st0" d="M93.7,179c0,14.7-13.3,26.7-29.7,26.7c-16.4,0-29.7-11.9-29.7-26.7s13.3-26.7,29.7-26.7
		C80.4,152.3,93.7,164.2,93.7,179 M20.8,245.8L39,217.5c0,0,25.7,19.9,33.4,26.7c7.8,6.8,21.6,18.2,21.3,36.8
		c-0.3,18.6-5.7,34.8-10.1,45.9c-4.4,11.1-33.1,69.9-33.1,69.9L6.6,369.4c0,0,42.2-39,58.4-62.8c5.1-7.4,11.1-27-6.1-37.1
		C41.7,259.3,20.8,245.8,20.8,245.8"/>
	<path className="st0" d="M77.1,228.9c0,0,24-15.5,47.6-80.4c6.7,2.4,40.8,11.5,40.8,11.5l-11.1,20.6c0,0,51-15.5,94.9-15.5
		c0,0,24-1,42.5,5.1s37.5,18.6,42.2,38.8c4.7,20.3,9.8,87.8,0.3,148.9c0,0-2,14.2-15.2,26.7c-13.2,12.5-29,18.6-57.1,18.6
		s-42.9-5.4-42.9-5.4l5.7-23.6c0,0,17.2,6.4,30.7,6.4s25-5.7,31.1-12.8c0,0,5.4-8.1,5.7-14.9c0.3-6.8,0.7-136.4-0.7-140.8
		c-1.4-4.4-3-20.9-24-25c-20.9-4-37.5-1.3-42.5-0.3c-5.1,1-36.8,8.8-52.7,15.2c6.1,2,17.9,5.1,17.9,5.1s-5.4,11.1-15.2,21.9
		c13.5-0.3,103.3,0,103.3,0v20.3H221v27H278v20.3H221v42.9c0,0,9.5,0,23.3-10.8c-1-7.4-0.7-8.4-4-19.2c8.8-2,26.3-8.1,26.3-8.1
		l21.9,54.4l-32.8,12.8l-6.1-21.9c0,0-9.8,11.1-33.8,18.2c-33.4,9.9-54.7,9.5-60.4,9.1c0,0-16.2,0.7-26-3.7
		c-9.8-4.4-24-14.5-24-43.6c0-9.8,2.4-17.9,2.4-17.9l41.2,0.3c0,0-2,14.5-2,18.2c0,3.7-3,19.6,26.7,19.2c0-21.3-0.3-50.3-0.3-50.3
		l-58.7-0.3v-20.3H173v-25.7h-14.9c0,0-16.2,15.2-25.3,24.3L116,259.3c0,0,19.5-20.3,32.7-49.6c-7.8,3-21.3,9.1-21.3,9.1
		s-9.5,12.2-21.3,24.6C97.7,238.7,77.1,228.9,77.1,228.9 M433,211.4l-0.3,19.2h189.4c0,0,20.6-12.5,20.6-24.6
		c0-12.2-15.9-15.5-26.7-16.2c-10.8-0.7-41.2-1-66.2,2C524.8,194.8,467.4,201.6,433,211.4 M386.1,258v-82.7h46.3v10.5
		c0,0,66.2-9.1,73.3-9.1V153h52.3v17.9c0,0,33.4-3,55.4-3c21.9,0,47.6,3.7,57.4,7.1c9.8,3.4,21.6,11.8,21.6,29.4
		c0,17.6-13.2,35.8-39.5,53.3c-4.7-4.7-9.4-9.3-14.2-13.8l0.3,7.8h-80.4v27.3h92.2v21.6h-92.2V365h125.3v26.7H385.7V365h118.8v-63.8
		h-82v-22.3h82.4v-27H433v6.1L386.1,258z"/>
	<path className="st0" d="M646.7,333.3c0,14.5-13.2,26.3-29.4,26.3S588,347.8,588,333.3c0-14.5,13.2-26.3,29.4-26.3
		C633.6,306.9,646.7,318.7,646.7,333.3 M10.3,458.4c0,0,5.5-20.2,27.1-19.3c21.6,0.8,37.5,2,50.1,2c12.5,0,41-2.8,44-3.9
		c-1.5,6-8.3,17.6-18.4,17.6H90.3c0,0-5.4-0.2-5.4,6.5v79.5c0,0,1.5,10.9,12,8.3c-3.4,9.3-12.2,14.6-22.4,14.6s-20.3-6.5-20.3-15.4
		v-88.3c0-4.6-0.7-5.7-8.8-6c-4.9-0.2-14.3-0.7-22.4,0.3C17.7,454.8,13.5,456.7,10.3,458.4 M163.9,506c-10.2,0-18.5,9.8-18.5,21.8
		s8.3,21.8,18.5,21.8c10.2,0,18.5-9.7,18.5-21.8S174.1,506,163.9,506 M125.2,479.4c1-3.4,2.8-9.1,9.9-13.2
		c7.9-4.5,19.7-4.7,23.9-4.7c4.2,0,17.6,0.8,21.6,2c4.1,1.1,27.3,4.7,27.3,30.2v48.1c0,0,1,10.1,11.2,6.8c-1.5,9.9-11.2,15-18.2,15
		c-7,0-18.4-4.2-18.4-12.8c0,0-4.6,14.5-28.9,14.3s-37.5-14.8-37.5-36.6c0-21.8,15.8-36.9,39-36.9c7.8,0,21.6,3.1,27.5,12.4
		c0.1-11.4-2.1-26.9-19.5-28.5C154.1,474.9,136.1,475.2,125.2,479.4 M516.9,506c-10.2,0-18.5,9.8-18.5,21.8s8.3,21.8,18.5,21.8
		c10.2,0,18.5-9.7,18.5-21.8S527.1,506,516.9,506 M478.2,479.4c1-3.4,2.8-9.1,9.9-13.2c7.9-4.5,19.7-4.7,23.9-4.7
		c4.2,0,17.6,0.8,21.6,2c4.1,1.1,27.3,4.7,27.3,30.2v48.1c0,0,1,10.1,11.2,6.8c-1.5,9.9-11.2,15-18.2,15c-7,0-18.4-4.2-18.4-12.8
		c0,0-4.6,14.5-28.9,14.3c-24.4-0.2-37.6-14.8-37.6-36.6c0-21.8,15.8-36.9,39-36.9c7.8,0,21.6,3.1,27.5,12.4
		c0.1-11.4-2.1-26.9-19.5-28.5C507,474.9,489.1,475.2,478.2,479.4 M280.3,476.9c-11,0-20,16.4-20,36.6c0,20.2,8.9,36.6,20,36.6
		s20-16.4,20-36.6C300.3,493.3,291.3,476.9,280.3,476.9 M331,513.5c0,29-22.7,52.5-50.7,52.5c-28,0-50.7-23.5-50.7-52.5
		c0-29,22.7-52.5,50.7-52.5C308.3,461,331,484.5,331,513.5 M632.2,476.9c-11,0-20,16.4-20,36.6s8.9,36.6,20,36.6s20-16.4,20-36.6
		C652.2,493.3,643.3,476.9,632.2,476.9 M683,513.5c0,29-22.7,52.5-50.7,52.5s-50.7-23.5-50.7-52.5c0-29,22.7-52.5,50.7-52.5
		S683,484.5,683,513.5 M380.1,492.8c-3,9.3-1.4,34.9,0,39.7c1.4,4.9,6.7,17,20.3,17c13.6,0,18.2-13.4,19.3-17.8
		c1-4.5,3-16.2-0.6-36.5c-3.6-20.3-19-18.6-19-18.6C388.8,476.8,383.1,483.5,380.1,492.8 M339.4,441.4c0,0,2-15,19.3-15
		c17.2,0,20.7,10.9,20.7,13.8v33.6c0,0,7.3-10.9,29.6-10.9c22.3,0,42.8,15.8,42.8,45.6c0,0,4.7,55.7-44,55.7
		c-15.8,0-24.9-5.3-29.6-13c-3,7.9-10.1,12.4-18.6,12.4c-8.5,0-18.6-5.3-18.6-14.8c3.6,0.4,10.5,0.2,10.5-8.7v-91.6
		C351.3,448.5,350.5,441.4,339.4,441.4 M696,550.6"/>
</g>
</svg>
